<svg width="384" height="324" viewBox="0 0 384 324" fill="none" xmlns="http://www.w3.org/2000/svg">
<path d="M7.584 24.168C6.352 24.168 5.248 23.968 4.272 23.568C3.296 23.168 2.512 22.576 1.92 21.792C1.344 21.008 1.04 20.064 1.008 18.96H5.376C5.44 19.584 5.656 20.064 6.024 20.4C6.392 20.72 6.872 20.88 7.464 20.88C8.072 20.88 8.552 20.744 8.904 20.472C9.256 20.184 9.432 19.792 9.432 19.296C9.432 18.88 9.288 18.536 9 18.264C8.728 17.992 8.384 17.768 7.968 17.592C7.568 17.416 6.992 17.216 6.24 16.992C5.152 16.656 4.264 16.32 3.576 15.984C2.888 15.648 2.296 15.152 1.8 14.496C1.304 13.84 1.056 12.984 1.056 11.928C1.056 10.36 1.624 9.136 2.76 8.256C3.896 7.36 5.376 6.912 7.2 6.912C9.056 6.912 10.552 7.36 11.688 8.256C12.824 9.136 13.432 10.368 13.512 11.952H9.072C9.04 11.408 8.84 10.984 8.472 10.68C8.104 10.36 7.632 10.2 7.056 10.2C6.56 10.2 6.16 10.336 5.856 10.608C5.552 10.864 5.4 11.24 5.4 11.736C5.4 12.28 5.656 12.704 6.168 13.008C6.68 13.312 7.48 13.64 8.568 13.992C9.656 14.36 10.536 14.712 11.208 15.048C11.896 15.384 12.488 15.872 12.984 16.512C13.48 17.152 13.728 17.976 13.728 18.984C13.728 19.944 13.48 20.816 12.984 21.6C12.504 22.384 11.8 23.008 10.872 23.472C9.944 23.936 8.848 24.168 7.584 24.168ZM18.3176 9.216C17.5976 9.216 17.0056 9.008 16.5416 8.592C16.0936 8.16 15.8696 7.632 15.8696 7.008C15.8696 6.368 16.0936 5.84 16.5416 5.424C17.0056 4.992 17.5976 4.776 18.3176 4.776C19.0216 4.776 19.5976 4.992 20.0456 5.424C20.5096 5.84 20.7416 6.368 20.7416 7.008C20.7416 7.632 20.5096 8.16 20.0456 8.592C19.5976 9.008 19.0216 9.216 18.3176 9.216ZM20.3576 10.608V24H16.2536V10.608H20.3576ZM28.4198 10.416C29.3638 10.416 30.1878 10.608 30.8918 10.992C31.6118 11.376 32.1638 11.88 32.5478 12.504V10.608H36.6518V23.976C36.6518 25.208 36.4038 26.32 35.9078 27.312C35.4278 28.32 34.6838 29.12 33.6758 29.712C32.6838 30.304 31.4438 30.6 29.9558 30.6C27.9718 30.6 26.3638 30.128 25.1318 29.184C23.8998 28.256 23.1958 26.992 23.0198 25.392H27.0758C27.2038 25.904 27.5078 26.304 27.9878 26.592C28.4678 26.896 29.0598 27.048 29.7638 27.048C30.6118 27.048 31.2838 26.8 31.7798 26.304C32.2918 25.824 32.5478 25.048 32.5478 23.976V22.08C32.1478 22.704 31.5958 23.216 30.8918 23.616C30.1878 24 29.3638 24.192 28.4198 24.192C27.3158 24.192 26.3158 23.912 25.4198 23.352C24.5238 22.776 23.8118 21.968 23.2838 20.928C22.7718 19.872 22.5158 18.656 22.5158 17.28C22.5158 15.904 22.7718 14.696 23.2838 13.656C23.8118 12.616 24.5238 11.816 25.4198 11.256C26.3158 10.696 27.3158 10.416 28.4198 10.416ZM32.5478 17.304C32.5478 16.28 32.2598 15.472 31.6838 14.88C31.1238 14.288 30.4358 13.992 29.6198 13.992C28.8038 13.992 28.1078 14.288 27.5318 14.88C26.9718 15.456 26.6918 16.256 26.6918 17.28C26.6918 18.304 26.9718 19.12 27.5318 19.728C28.1078 20.32 28.8038 20.616 29.6198 20.616C30.4358 20.616 31.1238 20.32 31.6838 19.728C32.2598 19.136 32.5478 18.328 32.5478 17.304ZM47.7808 10.464C49.3488 10.464 50.5968 10.976 51.5248 12C52.4688 13.008 52.9408 14.4 52.9408 16.176V24H48.8608V16.728C48.8608 15.832 48.6288 15.136 48.1648 14.64C47.7008 14.144 47.0768 13.896 46.2928 13.896C45.5088 13.896 44.8848 14.144 44.4208 14.64C43.9568 15.136 43.7248 15.832 43.7248 16.728V24H39.6208V10.608H43.7248V12.384C44.1408 11.792 44.7008 11.328 45.4048 10.992C46.1088 10.64 46.9008 10.464 47.7808 10.464ZM64.9826 7.152V24H60.8786V7.152H64.9826ZM76.1168 10.464C77.6848 10.464 78.9328 10.976 79.8608 12C80.8048 13.008 81.2768 14.4 81.2768 16.176V24H77.1968V16.728C77.1968 15.832 76.9648 15.136 76.5008 14.64C76.0368 14.144 75.4128 13.896 74.6288 13.896C73.8448 13.896 73.2208 14.144 72.7568 14.64C72.2928 15.136 72.0608 15.832 72.0608 16.728V24H67.9568V10.608H72.0608V12.384C72.4768 11.792 73.0368 11.328 73.7408 10.992C74.4448 10.64 75.2368 10.464 76.1168 10.464ZM96.6786 20.52V24H94.5906C93.1026 24 91.9426 23.64 91.1106 22.92C90.2786 22.184 89.8626 20.992 89.8626 19.344V14.016H88.2306V10.608H89.8626V7.344H93.9666V10.608H96.6546V14.016H93.9666V19.392C93.9666 19.792 94.0626 20.08 94.2546 20.256C94.4466 20.432 94.7666 20.52 95.2146 20.52H96.6786ZM105.061 24.192C103.749 24.192 102.565 23.912 101.509 23.352C100.469 22.792 99.6446 21.992 99.0366 20.952C98.4446 19.912 98.1486 18.696 98.1486 17.304C98.1486 15.928 98.4526 14.72 99.0606 13.68C99.6686 12.624 100.501 11.816 101.557 11.256C102.613 10.696 103.797 10.416 105.109 10.416C106.421 10.416 107.605 10.696 108.661 11.256C109.717 11.816 110.549 12.624 111.157 13.68C111.765 14.72 112.069 15.928 112.069 17.304C112.069 18.68 111.757 19.896 111.133 20.952C110.525 21.992 109.685 22.792 108.613 23.352C107.557 23.912 106.373 24.192 105.061 24.192ZM105.061 20.64C105.845 20.64 106.509 20.352 107.053 19.776C107.613 19.2 107.893 18.376 107.893 17.304C107.893 16.232 107.621 15.408 107.077 14.832C106.549 14.256 105.893 13.968 105.109 13.968C104.309 13.968 103.645 14.256 103.117 14.832C102.589 15.392 102.325 16.216 102.325 17.304C102.325 18.376 102.581 19.2 103.093 19.776C103.621 20.352 104.277 20.64 105.061 20.64ZM142.516 7.152L138.124 24H133.156L130.468 12.912L127.684 24H122.716L118.444 7.152H122.836L125.26 19.416L128.26 7.152H132.772L135.652 19.416L138.1 7.152H142.516ZM146.638 9.216C145.918 9.216 145.326 9.008 144.862 8.592C144.414 8.16 144.19 7.632 144.19 7.008C144.19 6.368 144.414 5.84 144.862 5.424C145.326 4.992 145.918 4.776 146.638 4.776C147.342 4.776 147.918 4.992 148.366 5.424C148.83 5.84 149.062 6.368 149.062 7.008C149.062 7.632 148.83 8.16 148.366 8.592C147.918 9.008 147.342 9.216 146.638 9.216ZM148.678 10.608V24H144.574V10.608H148.678ZM157.1 24.192C155.932 24.192 154.892 23.992 153.98 23.592C153.068 23.192 152.348 22.648 151.82 21.96C151.292 21.256 150.996 20.472 150.932 19.608H154.988C155.036 20.072 155.252 20.448 155.636 20.736C156.02 21.024 156.492 21.168 157.052 21.168C157.564 21.168 157.956 21.072 158.228 20.88C158.516 20.672 158.66 20.408 158.66 20.088C158.66 19.704 158.46 19.424 158.06 19.248C157.66 19.056 157.012 18.848 156.116 18.624C155.156 18.4 154.356 18.168 153.716 17.928C153.076 17.672 152.524 17.28 152.06 16.752C151.596 16.208 151.364 15.48 151.364 14.568C151.364 13.8 151.572 13.104 151.988 12.48C152.42 11.84 153.044 11.336 153.86 10.968C154.692 10.6 155.676 10.416 156.812 10.416C158.492 10.416 159.812 10.832 160.772 11.664C161.748 12.496 162.308 13.6 162.452 14.976H158.66C158.596 14.512 158.388 14.144 158.036 13.872C157.7 13.6 157.252 13.464 156.692 13.464C156.212 13.464 155.844 13.56 155.588 13.752C155.332 13.928 155.204 14.176 155.204 14.496C155.204 14.88 155.404 15.168 155.804 15.36C156.22 15.552 156.86 15.744 157.724 15.936C158.716 16.192 159.524 16.448 160.148 16.704C160.772 16.944 161.316 17.344 161.78 17.904C162.26 18.448 162.508 19.184 162.524 20.112C162.524 20.896 162.3 21.6 161.852 22.224C161.42 22.832 160.788 23.312 159.956 23.664C159.14 24.016 158.188 24.192 157.1 24.192ZM164.219 17.28C164.219 15.904 164.475 14.696 164.987 13.656C165.515 12.616 166.227 11.816 167.123 11.256C168.019 10.696 169.019 10.416 170.123 10.416C171.003 10.416 171.803 10.6 172.523 10.968C173.259 11.336 173.835 11.832 174.251 12.456V6.24H178.355V24H174.251V22.08C173.867 22.72 173.315 23.232 172.595 23.616C171.891 24 171.067 24.192 170.123 24.192C169.019 24.192 168.019 23.912 167.123 23.352C166.227 22.776 165.515 21.968 164.987 20.928C164.475 19.872 164.219 18.656 164.219 17.28ZM174.251 17.304C174.251 16.28 173.963 15.472 173.387 14.88C172.827 14.288 172.139 13.992 171.323 13.992C170.507 13.992 169.811 14.288 169.235 14.88C168.675 15.456 168.395 16.256 168.395 17.28C168.395 18.304 168.675 19.12 169.235 19.728C169.811 20.32 170.507 20.616 171.323 20.616C172.139 20.616 172.827 20.32 173.387 19.728C173.963 19.136 174.251 18.328 174.251 17.304ZM187.42 24.192C186.108 24.192 184.924 23.912 183.868 23.352C182.828 22.792 182.004 21.992 181.396 20.952C180.804 19.912 180.508 18.696 180.508 17.304C180.508 15.928 180.812 14.72 181.42 13.68C182.028 12.624 182.86 11.816 183.916 11.256C184.972 10.696 186.156 10.416 187.468 10.416C188.78 10.416 189.964 10.696 191.02 11.256C192.076 11.816 192.908 12.624 193.516 13.68C194.124 14.72 194.428 15.928 194.428 17.304C194.428 18.68 194.116 19.896 193.492 20.952C192.884 21.992 192.044 22.792 190.972 23.352C189.916 23.912 188.732 24.192 187.42 24.192ZM187.42 20.64C188.204 20.64 188.868 20.352 189.412 19.776C189.972 19.2 190.252 18.376 190.252 17.304C190.252 16.232 189.98 15.408 189.436 14.832C188.908 14.256 188.252 13.968 187.468 13.968C186.668 13.968 186.004 14.256 185.476 14.832C184.948 15.392 184.684 16.216 184.684 17.304C184.684 18.376 184.94 19.2 185.452 19.776C185.98 20.352 186.636 20.64 187.42 20.64ZM213.693 10.464C215.357 10.464 216.677 10.968 217.653 11.976C218.645 12.984 219.141 14.384 219.141 16.176V24H215.061V16.728C215.061 15.864 214.829 15.2 214.365 14.736C213.917 14.256 213.293 14.016 212.493 14.016C211.693 14.016 211.061 14.256 210.597 14.736C210.149 15.2 209.925 15.864 209.925 16.728V24H205.845V16.728C205.845 15.864 205.613 15.2 205.149 14.736C204.701 14.256 204.077 14.016 203.277 14.016C202.477 14.016 201.845 14.256 201.381 14.736C200.933 15.2 200.709 15.864 200.709 16.728V24H196.605V10.608H200.709V12.288C201.125 11.728 201.669 11.288 202.341 10.968C203.013 10.632 203.773 10.464 204.621 10.464C205.629 10.464 206.525 10.68 207.309 11.112C208.109 11.544 208.733 12.16 209.181 12.96C209.645 12.224 210.277 11.624 211.077 11.16C211.877 10.696 212.749 10.464 213.693 10.464ZM221.315 15.552C221.315 13.888 221.675 12.408 222.395 11.112C223.115 9.8 224.115 8.784 225.395 8.064C226.691 7.328 228.155 6.96 229.787 6.96C231.787 6.96 233.499 7.488 234.923 8.544C236.347 9.6 237.299 11.04 237.779 12.864H233.267C232.931 12.16 232.451 11.624 231.827 11.256C231.219 10.888 230.523 10.704 229.739 10.704C228.475 10.704 227.451 11.144 226.667 12.024C225.883 12.904 225.491 14.08 225.491 15.552C225.491 17.024 225.883 18.2 226.667 19.08C227.451 19.96 228.475 20.4 229.739 20.4C230.523 20.4 231.219 20.216 231.827 19.848C232.451 19.48 232.931 18.944 233.267 18.24H237.779C237.299 20.064 236.347 21.504 234.923 22.56C233.499 23.6 231.787 24.12 229.787 24.12C228.155 24.12 226.691 23.76 225.395 23.04C224.115 22.304 223.115 21.288 222.395 19.992C221.675 18.696 221.315 17.216 221.315 15.552ZM242.357 9.216C241.637 9.216 241.045 9.008 240.581 8.592C240.133 8.16 239.909 7.632 239.909 7.008C239.909 6.368 240.133 5.84 240.581 5.424C241.045 4.992 241.637 4.776 242.357 4.776C243.061 4.776 243.637 4.992 244.085 5.424C244.549 5.84 244.781 6.368 244.781 7.008C244.781 7.632 244.549 8.16 244.085 8.592C243.637 9.008 243.061 9.216 242.357 9.216ZM244.397 10.608V24H240.293V10.608H244.397ZM251.475 12.84C251.955 12.104 252.555 11.528 253.275 11.112C253.995 10.68 254.795 10.464 255.675 10.464V14.808H254.547C253.523 14.808 252.755 15.032 252.243 15.48C251.731 15.912 251.475 16.68 251.475 17.784V24H247.371V10.608H251.475V12.84ZM256.82 17.304C256.82 15.912 257.1 14.696 257.66 13.656C258.236 12.616 259.028 11.816 260.036 11.256C261.06 10.696 262.228 10.416 263.54 10.416C265.22 10.416 266.62 10.856 267.74 11.736C268.876 12.616 269.62 13.856 269.972 15.456H265.604C265.236 14.432 264.524 13.92 263.468 13.92C262.716 13.92 262.116 14.216 261.668 14.808C261.22 15.384 260.996 16.216 260.996 17.304C260.996 18.392 261.22 19.232 261.668 19.824C262.116 20.4 262.716 20.688 263.468 20.688C264.524 20.688 265.236 20.176 265.604 19.152H269.972C269.62 20.72 268.876 21.952 267.74 22.848C266.604 23.744 265.204 24.192 263.54 24.192C262.228 24.192 261.06 23.912 260.036 23.352C259.028 22.792 258.236 21.992 257.66 20.952C257.1 19.912 256.82 18.696 256.82 17.304ZM276.272 6.24V24H272.168V6.24H276.272ZM291.87 17.088C291.87 17.472 291.846 17.872 291.798 18.288H282.51C282.574 19.12 282.838 19.76 283.302 20.208C283.782 20.64 284.366 20.856 285.054 20.856C286.078 20.856 286.79 20.424 287.19 19.56H291.558C291.334 20.44 290.926 21.232 290.334 21.936C289.758 22.64 289.03 23.192 288.15 23.592C287.27 23.992 286.286 24.192 285.198 24.192C283.886 24.192 282.718 23.912 281.694 23.352C280.67 22.792 279.87 21.992 279.294 20.952C278.718 19.912 278.43 18.696 278.43 17.304C278.43 15.912 278.71 14.696 279.27 13.656C279.846 12.616 280.646 11.816 281.67 11.256C282.694 10.696 283.87 10.416 285.198 10.416C286.494 10.416 287.646 10.688 288.654 11.232C289.662 11.776 290.446 12.552 291.006 13.56C291.582 14.568 291.87 15.744 291.87 17.088ZM287.67 16.008C287.67 15.304 287.43 14.744 286.95 14.328C286.47 13.912 285.87 13.704 285.15 13.704C284.462 13.704 283.878 13.904 283.398 14.304C282.934 14.704 282.646 15.272 282.534 16.008H287.67Z" fill="#121317"/>
<path d="M4.704 42.848C5.92 42.848 6.97067 43.0773 7.856 43.536C8.752 43.984 9.43467 44.6293 9.904 45.472C10.384 46.3147 10.624 47.3067 10.624 48.448C10.624 49.5893 10.384 50.5813 9.904 51.424C9.43467 52.256 8.752 52.896 7.856 53.344C6.97067 53.7813 5.92 54 4.704 54H1.232V42.848H4.704ZM4.704 52.8C6.144 52.8 7.24267 52.4213 8 51.664C8.75733 50.896 9.136 49.824 9.136 48.448C9.136 47.0613 8.752 45.9787 7.984 45.2C7.22667 44.4213 6.13333 44.032 4.704 44.032H2.688V52.8H4.704ZM16.3685 54.144C15.5472 54.144 14.8005 53.9573 14.1285 53.584C13.4672 53.2107 12.9445 52.6827 12.5605 52C12.1872 51.3067 12.0005 50.5067 12.0005 49.6C12.0005 48.704 12.1925 47.9147 12.5765 47.232C12.9712 46.5387 13.5045 46.0107 14.1765 45.648C14.8485 45.2747 15.6005 45.088 16.4325 45.088C17.2645 45.088 18.0165 45.2747 18.6885 45.648C19.3605 46.0107 19.8885 46.5333 20.2725 47.216C20.6672 47.8987 20.8645 48.6933 20.8645 49.6C20.8645 50.5067 20.6618 51.3067 20.2565 52C19.8618 52.6827 19.3232 53.2107 18.6405 53.584C17.9578 53.9573 17.2005 54.144 16.3685 54.144ZM16.3685 52.864C16.8912 52.864 17.3818 52.7413 17.8405 52.496C18.2992 52.2507 18.6672 51.8827 18.9445 51.392C19.2325 50.9013 19.3765 50.304 19.3765 49.6C19.3765 48.896 19.2378 48.2987 18.9605 47.808C18.6832 47.3173 18.3205 46.9547 17.8725 46.72C17.4245 46.4747 16.9392 46.352 16.4165 46.352C15.8832 46.352 15.3925 46.4747 14.9445 46.72C14.5072 46.9547 14.1552 47.3173 13.8885 47.808C13.6218 48.2987 13.4885 48.896 13.4885 49.6C13.4885 50.3147 13.6165 50.9173 13.8725 51.408C14.1392 51.8987 14.4912 52.2667 14.9285 52.512C15.3658 52.7467 15.8458 52.864 16.3685 52.864ZM27.0509 45.072C28.1175 45.072 28.9815 45.3973 29.6429 46.048C30.3042 46.688 30.6349 47.616 30.6349 48.832V54H29.1949V49.04C29.1949 48.1653 28.9762 47.4987 28.5389 47.04C28.1015 46.5707 27.5042 46.336 26.7469 46.336C25.9789 46.336 25.3655 46.576 24.9069 47.056C24.4589 47.536 24.2349 48.2347 24.2349 49.152V54H22.7789V45.232H24.2349V46.48C24.5229 46.032 24.9122 45.6853 25.4029 45.44C25.9042 45.1947 26.4535 45.072 27.0509 45.072ZM33.2373 42.848H34.8533L33.3173 46.48H32.2933L33.2373 42.848ZM38.2893 46.432V51.6C38.2893 52.0267 38.3799 52.3307 38.5613 52.512C38.7426 52.6827 39.0573 52.768 39.5052 52.768H40.5773V54H39.2653C38.4546 54 37.8466 53.8133 37.4413 53.44C37.0359 53.0667 36.8333 52.4533 36.8333 51.6V46.432H35.6973V45.232H36.8333V43.024H38.2893V45.232H40.5773V46.432H38.2893ZM50.959 45.072C51.6203 45.072 52.2177 45.216 52.751 45.504C53.2843 45.7813 53.7003 46.2027 53.999 46.768C54.3083 47.3333 54.463 48.0213 54.463 48.832V54H53.023V49.04C53.023 48.1653 52.8043 47.4987 52.367 47.04C51.9297 46.5707 51.3323 46.336 50.575 46.336C49.807 46.336 49.1937 46.576 48.735 47.056C48.287 47.536 48.063 48.2347 48.063 49.152V54H46.607V42.16H48.063V46.48C48.351 46.032 48.7457 45.6853 49.247 45.44C49.759 45.1947 50.3297 45.072 50.959 45.072ZM56.2974 49.584C56.2974 48.688 56.4787 47.904 56.8414 47.232C57.204 46.5493 57.7 46.0213 58.3294 45.648C58.9694 45.2747 59.6787 45.088 60.4574 45.088C61.2254 45.088 61.892 45.2533 62.4574 45.584C63.0227 45.9147 63.444 46.3307 63.7214 46.832V45.232H65.1934V54H63.7214V52.368C63.4334 52.88 63.0014 53.3067 62.4254 53.648C61.86 53.9787 61.1987 54.144 60.4414 54.144C59.6627 54.144 58.9587 53.952 58.3294 53.568C57.7 53.184 57.204 52.6453 56.8414 51.952C56.4787 51.2587 56.2974 50.4693 56.2974 49.584ZM63.7214 49.6C63.7214 48.9387 63.588 48.3627 63.3214 47.872C63.0547 47.3813 62.692 47.008 62.2334 46.752C61.7854 46.4853 61.2894 46.352 60.7454 46.352C60.2014 46.352 59.7054 46.48 59.2574 46.736C58.8094 46.992 58.452 47.3653 58.1854 47.856C57.9187 48.3467 57.7854 48.9227 57.7854 49.584C57.7854 50.256 57.9187 50.8427 58.1854 51.344C58.452 51.8347 58.8094 52.2133 59.2574 52.48C59.7054 52.736 60.2014 52.864 60.7454 52.864C61.2894 52.864 61.7854 52.736 62.2334 52.48C62.692 52.2133 63.0547 51.8347 63.3214 51.344C63.588 50.8427 63.7214 50.2613 63.7214 49.6ZM70.9179 52.656L73.6379 45.232H75.1899L71.7499 54H70.0539L66.6139 45.232H68.1819L70.9179 52.656ZM84.6226 49.28C84.6226 49.5573 84.6066 49.8507 84.5746 50.16H77.5666C77.62 51.024 77.9133 51.7013 78.4466 52.192C78.9906 52.672 79.6466 52.912 80.4146 52.912C81.044 52.912 81.5666 52.768 81.9826 52.48C82.4093 52.1813 82.708 51.7867 82.8786 51.296H84.4466C84.212 52.1387 83.7426 52.8267 83.0386 53.36C82.3346 53.8827 81.46 54.144 80.4146 54.144C79.5826 54.144 78.836 53.9573 78.1746 53.584C77.524 53.2107 77.012 52.6827 76.6386 52C76.2653 51.3067 76.0786 50.5067 76.0786 49.6C76.0786 48.6933 76.26 47.8987 76.6226 47.216C76.9853 46.5333 77.492 46.0107 78.1426 45.648C78.804 45.2747 79.5613 45.088 80.4146 45.088C81.2466 45.088 81.9826 45.2693 82.6226 45.632C83.2626 45.9947 83.7533 46.496 84.0946 47.136C84.4466 47.7653 84.6226 48.48 84.6226 49.28ZM83.1186 48.976C83.1186 48.4213 82.996 47.9467 82.7506 47.552C82.5053 47.1467 82.1693 46.8427 81.7426 46.64C81.3266 46.4267 80.8626 46.32 80.3506 46.32C79.6146 46.32 78.9853 46.5547 78.4626 47.024C77.9506 47.4933 77.6573 48.144 77.5826 48.976H83.1186ZM90.2661 49.584C90.2661 48.688 90.4475 47.904 90.8101 47.232C91.1728 46.5493 91.6688 46.0213 92.2981 45.648C92.9381 45.2747 93.6475 45.088 94.4261 45.088C95.1941 45.088 95.8608 45.2533 96.4261 45.584C96.9915 45.9147 97.4128 46.3307 97.6901 46.832V45.232H99.1621V54H97.6901V52.368C97.4021 52.88 96.9701 53.3067 96.3941 53.648C95.8288 53.9787 95.1675 54.144 94.4101 54.144C93.6315 54.144 92.9275 53.952 92.2981 53.568C91.6688 53.184 91.1728 52.6453 90.8101 51.952C90.4475 51.2587 90.2661 50.4693 90.2661 49.584ZM97.6901 49.6C97.6901 48.9387 97.5568 48.3627 97.2901 47.872C97.0235 47.3813 96.6608 47.008 96.2021 46.752C95.7541 46.4853 95.2581 46.352 94.7141 46.352C94.1701 46.352 93.6741 46.48 93.2261 46.736C92.7781 46.992 92.4208 47.3653 92.1541 47.856C91.8875 48.3467 91.7541 48.9227 91.7541 49.584C91.7541 50.256 91.8875 50.8427 92.1541 51.344C92.4208 51.8347 92.7781 52.2133 93.2261 52.48C93.6741 52.736 94.1701 52.864 94.7141 52.864C95.2581 52.864 95.7541 52.736 96.2021 52.48C96.6608 52.2133 97.0235 51.8347 97.2901 51.344C97.5568 50.8427 97.6901 50.2613 97.6901 49.6ZM105.895 45.072C106.961 45.072 107.825 45.3973 108.487 46.048C109.148 46.688 109.479 47.616 109.479 48.832V54H108.039V49.04C108.039 48.1653 107.82 47.4987 107.383 47.04C106.945 46.5707 106.348 46.336 105.591 46.336C104.823 46.336 104.209 46.576 103.751 47.056C103.303 47.536 103.079 48.2347 103.079 49.152V54H101.623V45.232H103.079V46.48C103.367 46.032 103.756 45.6853 104.247 45.44C104.748 45.1947 105.297 45.072 105.895 45.072ZM115.579 49.584C115.579 48.688 115.76 47.904 116.123 47.232C116.485 46.5493 116.981 46.0213 117.611 45.648C118.251 45.2747 118.96 45.088 119.739 45.088C120.507 45.088 121.173 45.2533 121.739 45.584C122.304 45.9147 122.725 46.3307 123.003 46.832V45.232H124.475V54H123.003V52.368C122.715 52.88 122.283 53.3067 121.707 53.648C121.141 53.9787 120.48 54.144 119.723 54.144C118.944 54.144 118.24 53.952 117.611 53.568C116.981 53.184 116.485 52.6453 116.123 51.952C115.76 51.2587 115.579 50.4693 115.579 49.584ZM123.003 49.6C123.003 48.9387 122.869 48.3627 122.603 47.872C122.336 47.3813 121.973 47.008 121.515 46.752C121.067 46.4853 120.571 46.352 120.027 46.352C119.483 46.352 118.987 46.48 118.539 46.736C118.091 46.992 117.733 47.3653 117.467 47.856C117.2 48.3467 117.067 48.9227 117.067 49.584C117.067 50.256 117.2 50.8427 117.467 51.344C117.733 51.8347 118.091 52.2133 118.539 52.48C118.987 52.736 119.483 52.864 120.027 52.864C120.571 52.864 121.067 52.736 121.515 52.48C121.973 52.2133 122.336 51.8347 122.603 51.344C122.869 50.8427 123.003 50.2613 123.003 49.6ZM126.391 49.6C126.391 48.6933 126.572 47.904 126.935 47.232C127.298 46.5493 127.799 46.0213 128.439 45.648C129.09 45.2747 129.831 45.088 130.663 45.088C131.74 45.088 132.626 45.3493 133.319 45.872C134.023 46.3947 134.487 47.12 134.711 48.048H133.143C132.994 47.5147 132.7 47.0933 132.263 46.784C131.836 46.4747 131.303 46.32 130.663 46.32C129.831 46.32 129.159 46.608 128.647 47.184C128.135 47.7493 127.879 48.5547 127.879 49.6C127.879 50.656 128.135 51.472 128.647 52.048C129.159 52.624 129.831 52.912 130.663 52.912C131.303 52.912 131.836 52.7627 132.263 52.464C132.69 52.1653 132.983 51.7387 133.143 51.184H134.711C134.476 52.08 134.007 52.8 133.303 53.344C132.599 53.8773 131.719 54.144 130.663 54.144C129.831 54.144 129.09 53.9573 128.439 53.584C127.799 53.2107 127.298 52.6827 126.935 52C126.572 51.3173 126.391 50.5173 126.391 49.6ZM136.11 49.6C136.11 48.6933 136.291 47.904 136.654 47.232C137.017 46.5493 137.518 46.0213 138.158 45.648C138.809 45.2747 139.55 45.088 140.382 45.088C141.459 45.088 142.345 45.3493 143.038 45.872C143.742 46.3947 144.206 47.12 144.43 48.048H142.862C142.713 47.5147 142.419 47.0933 141.982 46.784C141.555 46.4747 141.022 46.32 140.382 46.32C139.55 46.32 138.878 46.608 138.366 47.184C137.854 47.7493 137.598 48.5547 137.598 49.6C137.598 50.656 137.854 51.472 138.366 52.048C138.878 52.624 139.55 52.912 140.382 52.912C141.022 52.912 141.555 52.7627 141.982 52.464C142.409 52.1653 142.702 51.7387 142.862 51.184H144.43C144.195 52.08 143.726 52.8 143.022 53.344C142.318 53.8773 141.438 54.144 140.382 54.144C139.55 54.144 138.809 53.9573 138.158 53.584C137.518 53.2107 137.017 52.6827 136.654 52C136.291 51.3173 136.11 50.5173 136.11 49.6ZM150.197 54.144C149.375 54.144 148.629 53.9573 147.957 53.584C147.295 53.2107 146.773 52.6827 146.389 52C146.015 51.3067 145.829 50.5067 145.829 49.6C145.829 48.704 146.021 47.9147 146.405 47.232C146.799 46.5387 147.333 46.0107 148.005 45.648C148.677 45.2747 149.429 45.088 150.261 45.088C151.093 45.088 151.845 45.2747 152.517 45.648C153.189 46.0107 153.717 46.5333 154.101 47.216C154.495 47.8987 154.693 48.6933 154.693 49.6C154.693 50.5067 154.49 51.3067 154.085 52C153.69 52.6827 153.151 53.2107 152.469 53.584C151.786 53.9573 151.029 54.144 150.197 54.144ZM150.197 52.864C150.719 52.864 151.21 52.7413 151.669 52.496C152.127 52.2507 152.495 51.8827 152.773 51.392C153.061 50.9013 153.205 50.304 153.205 49.6C153.205 48.896 153.066 48.2987 152.789 47.808C152.511 47.3173 152.149 46.9547 151.701 46.72C151.253 46.4747 150.767 46.352 150.245 46.352C149.711 46.352 149.221 46.4747 148.773 46.72C148.335 46.9547 147.983 47.3173 147.717 47.808C147.45 48.2987 147.317 48.896 147.317 49.6C147.317 50.3147 147.445 50.9173 147.701 51.408C147.967 51.8987 148.319 52.2667 148.757 52.512C149.194 52.7467 149.674 52.864 150.197 52.864ZM164.383 45.232V54H162.927V52.704C162.65 53.152 162.26 53.504 161.759 53.76C161.268 54.0053 160.724 54.128 160.127 54.128C159.444 54.128 158.831 53.9893 158.287 53.712C157.743 53.424 157.311 52.9973 156.991 52.432C156.682 51.8667 156.527 51.1787 156.527 50.368V45.232H157.967V50.176C157.967 51.04 158.186 51.7067 158.623 52.176C159.06 52.6347 159.658 52.864 160.415 52.864C161.194 52.864 161.807 52.624 162.255 52.144C162.703 51.664 162.927 50.9653 162.927 50.048V45.232H164.383ZM171.113 45.072C172.18 45.072 173.044 45.3973 173.705 46.048C174.367 46.688 174.697 47.616 174.697 48.832V54H173.257V49.04C173.257 48.1653 173.039 47.4987 172.601 47.04C172.164 46.5707 171.567 46.336 170.809 46.336C170.041 46.336 169.428 46.576 168.969 47.056C168.521 47.536 168.297 48.2347 168.297 49.152V54H166.841V45.232H168.297V46.48C168.585 46.032 168.975 45.6853 169.465 45.44C169.967 45.1947 170.516 45.072 171.113 45.072ZM178.852 46.432V51.6C178.852 52.0267 178.942 52.3307 179.124 52.512C179.305 52.6827 179.62 52.768 180.068 52.768H181.14V54H179.828C179.017 54 178.409 53.8133 178.004 53.44C177.598 53.0667 177.396 52.4533 177.396 51.6V46.432H176.26V45.232H177.396V43.024H178.852V45.232H181.14V46.432H178.852ZM185.752 42.704C186.808 42.704 187.661 43.0027 188.312 43.6C188.963 44.1973 189.288 44.9973 189.288 46C189.288 47.12 188.941 47.952 188.248 48.496C187.555 49.0293 186.616 49.296 185.432 49.296L185.384 50.816H184.12L184.056 48.288H184.52C185.576 48.288 186.403 48.128 187 47.808C187.597 47.488 187.896 46.8853 187.896 46C187.896 45.36 187.704 44.8533 187.32 44.48C186.936 44.1067 186.419 43.92 185.768 43.92C185.107 43.92 184.584 44.1013 184.2 44.464C183.827 44.816 183.64 45.3013 183.64 45.92H182.264C182.264 45.28 182.408 44.72 182.696 44.24C182.984 43.7493 183.389 43.3707 183.912 43.104C184.445 42.8373 185.059 42.704 185.752 42.704ZM184.744 54.096C184.467 54.096 184.232 54 184.04 53.808C183.848 53.616 183.752 53.3813 183.752 53.104C183.752 52.8267 183.848 52.592 184.04 52.4C184.232 52.208 184.467 52.112 184.744 52.112C185.011 52.112 185.235 52.208 185.416 52.4C185.608 52.592 185.704 52.8267 185.704 53.104C185.704 53.3813 185.608 53.616 185.416 53.808C185.235 54 185.011 54.096 184.744 54.096Z" fill="#404555"/>
<path d="M199.288 54.112C198.509 54.112 197.805 53.9787 197.176 53.712C196.557 53.4453 196.067 53.0613 195.704 52.56C195.341 52.0587 195.155 51.4667 195.144 50.784H197.544C197.576 51.2427 197.736 51.6053 198.024 51.872C198.323 52.1387 198.728 52.272 199.24 52.272C199.763 52.272 200.173 52.1493 200.472 51.904C200.771 51.648 200.92 51.3173 200.92 50.912C200.92 50.5813 200.819 50.3093 200.616 50.096C200.413 49.8827 200.157 49.7173 199.848 49.6C199.549 49.472 199.133 49.3333 198.6 49.184C197.875 48.9707 197.283 48.7627 196.824 48.56C196.376 48.3467 195.987 48.032 195.656 47.616C195.336 47.1893 195.176 46.624 195.176 45.92C195.176 45.2587 195.341 44.6827 195.672 44.192C196.003 43.7013 196.467 43.328 197.064 43.072C197.661 42.8053 198.344 42.672 199.112 42.672C200.264 42.672 201.197 42.9547 201.912 43.52C202.637 44.0747 203.037 44.8533 203.112 45.856H200.648C200.627 45.472 200.461 45.1573 200.152 44.912C199.853 44.656 199.453 44.528 198.952 44.528C198.515 44.528 198.163 44.64 197.896 44.864C197.64 45.088 197.512 45.4133 197.512 45.84C197.512 46.1387 197.608 46.3893 197.8 46.592C198.003 46.784 198.248 46.944 198.536 47.072C198.835 47.1893 199.251 47.328 199.784 47.488C200.509 47.7013 201.101 47.9147 201.56 48.128C202.019 48.3413 202.413 48.6613 202.744 49.088C203.075 49.5147 203.24 50.0747 203.24 50.768C203.24 51.3653 203.085 51.92 202.776 52.432C202.467 52.944 202.013 53.3547 201.416 53.664C200.819 53.9627 200.109 54.112 199.288 54.112ZM206.318 44.08C205.923 44.08 205.593 43.9573 205.326 43.712C205.07 43.456 204.942 43.1413 204.942 42.768C204.942 42.3947 205.07 42.0853 205.326 41.84C205.593 41.584 205.923 41.456 206.318 41.456C206.713 41.456 207.038 41.584 207.294 41.84C207.561 42.0853 207.694 42.3947 207.694 42.768C207.694 43.1413 207.561 43.456 207.294 43.712C207.038 43.9573 206.713 44.08 206.318 44.08ZM207.422 45.136V54H205.182V45.136H207.422ZM213.107 44.992C213.769 44.992 214.35 45.1253 214.851 45.392C215.353 45.648 215.747 45.984 216.035 46.4V45.136H218.291V54.064C218.291 54.8853 218.126 55.616 217.795 56.256C217.465 56.9067 216.969 57.4187 216.307 57.792C215.646 58.176 214.846 58.368 213.907 58.368C212.649 58.368 211.614 58.0747 210.803 57.488C210.003 56.9013 209.55 56.1013 209.443 55.088H211.667C211.785 55.4933 212.035 55.8133 212.419 56.048C212.814 56.2933 213.289 56.416 213.843 56.416C214.494 56.416 215.022 56.2187 215.427 55.824C215.833 55.44 216.035 54.8533 216.035 54.064V52.688C215.747 53.104 215.347 53.4507 214.835 53.728C214.334 54.0053 213.758 54.144 213.107 54.144C212.361 54.144 211.678 53.952 211.059 53.568C210.441 53.184 209.95 52.6453 209.587 51.952C209.235 51.248 209.059 50.4427 209.059 49.536C209.059 48.64 209.235 47.8453 209.587 47.152C209.95 46.4587 210.435 45.9253 211.043 45.552C211.662 45.1787 212.35 44.992 213.107 44.992ZM216.035 49.568C216.035 49.024 215.929 48.56 215.715 48.176C215.502 47.7813 215.214 47.4827 214.851 47.28C214.489 47.0667 214.099 46.96 213.683 46.96C213.267 46.96 212.883 47.0613 212.531 47.264C212.179 47.4667 211.891 47.7653 211.667 48.16C211.454 48.544 211.347 49.0027 211.347 49.536C211.347 50.0693 211.454 50.5387 211.667 50.944C211.891 51.3387 212.179 51.6427 212.531 51.856C212.894 52.0693 213.278 52.176 213.683 52.176C214.099 52.176 214.489 52.0747 214.851 51.872C215.214 51.6587 215.502 51.36 215.715 50.976C215.929 50.5813 216.035 50.112 216.035 49.568ZM225.391 45.008C226.447 45.008 227.3 45.344 227.951 46.016C228.602 46.6773 228.927 47.6053 228.927 48.8V54H226.687V49.104C226.687 48.4 226.511 47.8613 226.159 47.488C225.807 47.104 225.327 46.912 224.719 46.912C224.1 46.912 223.61 47.104 223.247 47.488C222.895 47.8613 222.719 48.4 222.719 49.104V54H220.479V45.136H222.719V46.24C223.018 45.856 223.396 45.5573 223.855 45.344C224.324 45.12 224.836 45.008 225.391 45.008ZM237.078 42.832V49.744C237.078 50.5013 237.275 51.0827 237.67 51.488C238.064 51.8827 238.619 52.08 239.334 52.08C240.059 52.08 240.619 51.8827 241.014 51.488C241.408 51.0827 241.606 50.5013 241.606 49.744V42.832H243.862V49.728C243.862 50.6773 243.654 51.4827 243.238 52.144C242.832 52.7947 242.283 53.2853 241.59 53.616C240.907 53.9467 240.144 54.112 239.302 54.112C238.47 54.112 237.712 53.9467 237.03 53.616C236.358 53.2853 235.824 52.7947 235.43 52.144C235.035 51.4827 234.838 50.6773 234.838 49.728V42.832H237.078ZM248.266 46.416C248.554 46.0107 248.949 45.6747 249.45 45.408C249.962 45.1307 250.543 44.992 251.194 44.992C251.951 44.992 252.634 45.1787 253.242 45.552C253.861 45.9253 254.346 46.4587 254.698 47.152C255.061 47.8347 255.242 48.6293 255.242 49.536C255.242 50.4427 255.061 51.248 254.698 51.952C254.346 52.6453 253.861 53.184 253.242 53.568C252.634 53.952 251.951 54.144 251.194 54.144C250.543 54.144 249.967 54.0107 249.466 53.744C248.975 53.4773 248.575 53.1413 248.266 52.736V58.224H246.026V45.136H248.266V46.416ZM252.954 49.536C252.954 49.0027 252.842 48.544 252.618 48.16C252.405 47.7653 252.117 47.4667 251.754 47.264C251.402 47.0613 251.018 46.96 250.602 46.96C250.197 46.96 249.813 47.0667 249.45 47.28C249.098 47.4827 248.81 47.7813 248.586 48.176C248.373 48.5707 248.266 49.0347 248.266 49.568C248.266 50.1013 248.373 50.5653 248.586 50.96C248.81 51.3547 249.098 51.6587 249.45 51.872C249.813 52.0747 250.197 52.176 250.602 52.176C251.018 52.176 251.402 52.0693 251.754 51.856C252.117 51.6427 252.405 51.3387 252.618 50.944C252.842 50.5493 252.954 50.08 252.954 49.536Z" fill="#2558E5"/>
<path d="M271.686 236.228V237.81H267.612V240.316H270.734V241.87H267.612V246H265.652V236.228H271.686ZM276.519 246.126C275.773 246.126 275.101 245.963 274.503 245.636C273.906 245.3 273.435 244.829 273.089 244.222C272.753 243.615 272.585 242.915 272.585 242.122C272.585 241.329 272.758 240.629 273.103 240.022C273.458 239.415 273.939 238.949 274.545 238.622C275.152 238.286 275.829 238.118 276.575 238.118C277.322 238.118 277.999 238.286 278.605 238.622C279.212 238.949 279.688 239.415 280.033 240.022C280.388 240.629 280.565 241.329 280.565 242.122C280.565 242.915 280.383 243.615 280.019 244.222C279.665 244.829 279.179 245.3 278.563 245.636C277.957 245.963 277.275 246.126 276.519 246.126ZM276.519 244.418C276.874 244.418 277.205 244.334 277.513 244.166C277.831 243.989 278.083 243.727 278.269 243.382C278.456 243.037 278.549 242.617 278.549 242.122C278.549 241.385 278.353 240.82 277.961 240.428C277.579 240.027 277.107 239.826 276.547 239.826C275.987 239.826 275.516 240.027 275.133 240.428C274.76 240.82 274.573 241.385 274.573 242.122C274.573 242.859 274.755 243.429 275.119 243.83C275.493 244.222 275.959 244.418 276.519 244.418ZM283.963 239.448C284.215 239.037 284.542 238.715 284.943 238.482C285.354 238.249 285.82 238.132 286.343 238.132V240.19H285.825C285.209 240.19 284.742 240.335 284.425 240.624C284.117 240.913 283.963 241.417 283.963 242.136V246H282.003V238.244H283.963V239.448ZM290.701 238.118C291.28 238.118 291.789 238.235 292.227 238.468C292.666 238.692 293.011 238.986 293.263 239.35V238.244H295.237V246.056C295.237 246.775 295.093 247.414 294.803 247.974C294.514 248.543 294.08 248.991 293.501 249.318C292.923 249.654 292.223 249.822 291.401 249.822C290.3 249.822 289.395 249.565 288.685 249.052C287.985 248.539 287.589 247.839 287.495 246.952H289.441C289.544 247.307 289.763 247.587 290.099 247.792C290.445 248.007 290.86 248.114 291.345 248.114C291.915 248.114 292.377 247.941 292.731 247.596C293.086 247.26 293.263 246.747 293.263 246.056V244.852C293.011 245.216 292.661 245.519 292.213 245.762C291.775 246.005 291.271 246.126 290.701 246.126C290.048 246.126 289.451 245.958 288.909 245.622C288.368 245.286 287.939 244.815 287.621 244.208C287.313 243.592 287.159 242.887 287.159 242.094C287.159 241.31 287.313 240.615 287.621 240.008C287.939 239.401 288.363 238.935 288.895 238.608C289.437 238.281 290.039 238.118 290.701 238.118ZM293.263 242.122C293.263 241.646 293.17 241.24 292.983 240.904C292.797 240.559 292.545 240.297 292.227 240.12C291.91 239.933 291.569 239.84 291.205 239.84C290.841 239.84 290.505 239.929 290.197 240.106C289.889 240.283 289.637 240.545 289.441 240.89C289.255 241.226 289.161 241.627 289.161 242.094C289.161 242.561 289.255 242.971 289.441 243.326C289.637 243.671 289.889 243.937 290.197 244.124C290.515 244.311 290.851 244.404 291.205 244.404C291.569 244.404 291.91 244.315 292.227 244.138C292.545 243.951 292.797 243.69 292.983 243.354C293.17 243.009 293.263 242.598 293.263 242.122ZM300.596 246.126C299.849 246.126 299.177 245.963 298.58 245.636C297.982 245.3 297.511 244.829 297.166 244.222C296.83 243.615 296.662 242.915 296.662 242.122C296.662 241.329 296.834 240.629 297.18 240.022C297.534 239.415 298.015 238.949 298.622 238.622C299.228 238.286 299.905 238.118 300.652 238.118C301.398 238.118 302.075 238.286 302.682 238.622C303.288 238.949 303.764 239.415 304.11 240.022C304.464 240.629 304.642 241.329 304.642 242.122C304.642 242.915 304.46 243.615 304.096 244.222C303.741 244.829 303.256 245.3 302.64 245.636C302.033 245.963 301.352 246.126 300.596 246.126ZM300.596 244.418C300.95 244.418 301.282 244.334 301.59 244.166C301.907 243.989 302.159 243.727 302.346 243.382C302.532 243.037 302.626 242.617 302.626 242.122C302.626 241.385 302.43 240.82 302.038 240.428C301.655 240.027 301.184 239.826 300.624 239.826C300.064 239.826 299.592 240.027 299.21 240.428C298.836 240.82 298.65 241.385 298.65 242.122C298.65 242.859 298.832 243.429 299.196 243.83C299.569 244.222 300.036 244.418 300.596 244.418ZM308.361 239.854V243.606C308.361 243.867 308.422 244.059 308.543 244.18C308.674 244.292 308.889 244.348 309.187 244.348H310.097V246H308.865C307.213 246 306.387 245.197 306.387 243.592V239.854H305.463V238.244H306.387V236.326H308.361V238.244H310.097V239.854H308.361ZM316.803 239.364C317.055 239.009 317.4 238.715 317.839 238.482C318.287 238.239 318.796 238.118 319.365 238.118C320.028 238.118 320.625 238.281 321.157 238.608C321.698 238.935 322.123 239.401 322.431 240.008C322.748 240.605 322.907 241.301 322.907 242.094C322.907 242.887 322.748 243.592 322.431 244.208C322.123 244.815 321.698 245.286 321.157 245.622C320.625 245.958 320.028 246.126 319.365 246.126C318.796 246.126 318.292 246.009 317.853 245.776C317.424 245.543 317.074 245.249 316.803 244.894V249.696H314.843V238.244H316.803V239.364ZM320.905 242.094C320.905 241.627 320.807 241.226 320.611 240.89C320.424 240.545 320.172 240.283 319.855 240.106C319.547 239.929 319.211 239.84 318.847 239.84C318.492 239.84 318.156 239.933 317.839 240.12C317.531 240.297 317.279 240.559 317.083 240.904C316.896 241.249 316.803 241.655 316.803 242.122C316.803 242.589 316.896 242.995 317.083 243.34C317.279 243.685 317.531 243.951 317.839 244.138C318.156 244.315 318.492 244.404 318.847 244.404C319.211 244.404 319.547 244.311 319.855 244.124C320.172 243.937 320.424 243.671 320.611 243.326C320.807 242.981 320.905 242.57 320.905 242.094ZM323.827 242.094C323.827 241.31 323.981 240.615 324.289 240.008C324.607 239.401 325.031 238.935 325.563 238.608C326.105 238.281 326.707 238.118 327.369 238.118C327.948 238.118 328.452 238.235 328.881 238.468C329.32 238.701 329.67 238.995 329.931 239.35V238.244H331.905V246H329.931V244.866C329.679 245.23 329.329 245.533 328.881 245.776C328.443 246.009 327.934 246.126 327.355 246.126C326.702 246.126 326.105 245.958 325.563 245.622C325.031 245.286 324.607 244.815 324.289 244.208C323.981 243.592 323.827 242.887 323.827 242.094ZM329.931 242.122C329.931 241.646 329.838 241.24 329.651 240.904C329.465 240.559 329.213 240.297 328.895 240.12C328.578 239.933 328.237 239.84 327.873 239.84C327.509 239.84 327.173 239.929 326.865 240.106C326.557 240.283 326.305 240.545 326.109 240.89C325.923 241.226 325.829 241.627 325.829 242.094C325.829 242.561 325.923 242.971 326.109 243.326C326.305 243.671 326.557 243.937 326.865 244.124C327.183 244.311 327.519 244.404 327.873 244.404C328.237 244.404 328.578 244.315 328.895 244.138C329.213 243.951 329.465 243.69 329.651 243.354C329.838 243.009 329.931 242.598 329.931 242.122ZM336.788 246.126C336.153 246.126 335.584 246.014 335.08 245.79C334.576 245.557 334.174 245.244 333.876 244.852C333.586 244.46 333.428 244.026 333.4 243.55H335.374C335.411 243.849 335.556 244.096 335.808 244.292C336.069 244.488 336.391 244.586 336.774 244.586C337.147 244.586 337.436 244.511 337.642 244.362C337.856 244.213 337.964 244.021 337.964 243.788C337.964 243.536 337.833 243.349 337.572 243.228C337.32 243.097 336.914 242.957 336.354 242.808C335.775 242.668 335.299 242.523 334.926 242.374C334.562 242.225 334.244 241.996 333.974 241.688C333.712 241.38 333.582 240.965 333.582 240.442C333.582 240.013 333.703 239.621 333.946 239.266C334.198 238.911 334.552 238.631 335.01 238.426C335.476 238.221 336.022 238.118 336.648 238.118C337.572 238.118 338.309 238.351 338.86 238.818C339.41 239.275 339.714 239.896 339.77 240.68H337.894C337.866 240.372 337.735 240.129 337.502 239.952C337.278 239.765 336.974 239.672 336.592 239.672C336.237 239.672 335.962 239.737 335.766 239.868C335.579 239.999 335.486 240.181 335.486 240.414C335.486 240.675 335.616 240.876 335.878 241.016C336.139 241.147 336.545 241.282 337.096 241.422C337.656 241.562 338.118 241.707 338.482 241.856C338.846 242.005 339.158 242.239 339.42 242.556C339.69 242.864 339.83 243.275 339.84 243.788C339.84 244.236 339.714 244.637 339.462 244.992C339.219 245.347 338.864 245.627 338.398 245.832C337.94 246.028 337.404 246.126 336.788 246.126ZM344.416 246.126C343.782 246.126 343.212 246.014 342.708 245.79C342.204 245.557 341.803 245.244 341.504 244.852C341.215 244.46 341.056 244.026 341.028 243.55H343.002C343.04 243.849 343.184 244.096 343.436 244.292C343.698 244.488 344.02 244.586 344.402 244.586C344.776 244.586 345.065 244.511 345.27 244.362C345.485 244.213 345.592 244.021 345.592 243.788C345.592 243.536 345.462 243.349 345.2 243.228C344.948 243.097 344.542 242.957 343.982 242.808C343.404 242.668 342.928 242.523 342.554 242.374C342.19 242.225 341.873 241.996 341.602 241.688C341.341 241.38 341.21 240.965 341.21 240.442C341.21 240.013 341.332 239.621 341.574 239.266C341.826 238.911 342.181 238.631 342.638 238.426C343.105 238.221 343.651 238.118 344.276 238.118C345.2 238.118 345.938 238.351 346.488 238.818C347.039 239.275 347.342 239.896 347.398 240.68H345.522C345.494 240.372 345.364 240.129 345.13 239.952C344.906 239.765 344.603 239.672 344.22 239.672C343.866 239.672 343.59 239.737 343.394 239.868C343.208 239.999 343.114 240.181 343.114 240.414C343.114 240.675 343.245 240.876 343.506 241.016C343.768 241.147 344.174 241.282 344.724 241.422C345.284 241.562 345.746 241.707 346.11 241.856C346.474 242.005 346.787 242.239 347.048 242.556C347.319 242.864 347.459 243.275 347.468 243.788C347.468 244.236 347.342 244.637 347.09 244.992C346.848 245.347 346.493 245.627 346.026 245.832C345.569 246.028 345.032 246.126 344.416 246.126ZM359.829 238.244L357.561 246H355.447L354.033 240.582L352.619 246H350.491L348.209 238.244H350.197L351.569 244.152L353.053 238.244H355.125L356.581 244.138L357.953 238.244H359.829ZM364.334 246.126C363.587 246.126 362.915 245.963 362.318 245.636C361.72 245.3 361.249 244.829 360.904 244.222C360.568 243.615 360.4 242.915 360.4 242.122C360.4 241.329 360.572 240.629 360.918 240.022C361.272 239.415 361.753 238.949 362.36 238.622C362.966 238.286 363.643 238.118 364.39 238.118C365.136 238.118 365.813 238.286 366.42 238.622C367.026 238.949 367.502 239.415 367.848 240.022C368.202 240.629 368.38 241.329 368.38 242.122C368.38 242.915 368.198 243.615 367.834 244.222C367.479 244.829 366.994 245.3 366.378 245.636C365.771 245.963 365.09 246.126 364.334 246.126ZM364.334 244.418C364.688 244.418 365.02 244.334 365.328 244.166C365.645 243.989 365.897 243.727 366.084 243.382C366.27 243.037 366.364 242.617 366.364 242.122C366.364 241.385 366.168 240.82 365.776 240.428C365.393 240.027 364.922 239.826 364.362 239.826C363.802 239.826 363.33 240.027 362.948 240.428C362.574 240.82 362.388 241.385 362.388 242.122C362.388 242.859 362.57 243.429 362.934 243.83C363.307 244.222 363.774 244.418 364.334 244.418ZM371.778 239.448C372.03 239.037 372.356 238.715 372.758 238.482C373.168 238.249 373.635 238.132 374.158 238.132V240.19H373.64C373.024 240.19 372.557 240.335 372.24 240.624C371.932 240.913 371.778 241.417 371.778 242.136V246H369.818V238.244H371.778V239.448ZM374.974 242.094C374.974 241.31 375.128 240.615 375.436 240.008C375.753 239.401 376.182 238.935 376.724 238.608C377.265 238.281 377.867 238.118 378.53 238.118C379.034 238.118 379.514 238.23 379.972 238.454C380.429 238.669 380.793 238.958 381.064 239.322V235.64H383.052V246H381.064V244.852C380.821 245.235 380.48 245.543 380.042 245.776C379.603 246.009 379.094 246.126 378.516 246.126C377.862 246.126 377.265 245.958 376.724 245.622C376.182 245.286 375.753 244.815 375.436 244.208C375.128 243.592 374.974 242.887 374.974 242.094ZM381.078 242.122C381.078 241.646 380.984 241.24 380.798 240.904C380.611 240.559 380.359 240.297 380.042 240.12C379.724 239.933 379.384 239.84 379.02 239.84C378.656 239.84 378.32 239.929 378.012 240.106C377.704 240.283 377.452 240.545 377.256 240.89C377.069 241.226 376.976 241.627 376.976 242.094C376.976 242.561 377.069 242.971 377.256 243.326C377.452 243.671 377.704 243.937 378.012 244.124C378.329 244.311 378.665 244.404 379.02 244.404C379.384 244.404 379.724 244.315 380.042 244.138C380.359 243.951 380.611 243.69 380.798 243.354C380.984 243.009 381.078 242.598 381.078 242.122Z" fill="#2558E5"/>
<rect y="276" width="384" height="48" rx="4" fill="#F1C12B"/>
<path d="M166.58 306.126C165.704 306.126 164.912 305.976 164.204 305.676C163.508 305.376 162.956 304.944 162.548 304.38C162.14 303.816 161.93 303.15 161.918 302.382H164.618C164.654 302.898 164.834 303.306 165.158 303.606C165.494 303.906 165.95 304.056 166.526 304.056C167.114 304.056 167.576 303.918 167.912 303.642C168.248 303.354 168.416 302.982 168.416 302.526C168.416 302.154 168.302 301.848 168.074 301.608C167.846 301.368 167.558 301.182 167.21 301.05C166.874 300.906 166.406 300.75 165.806 300.582C164.99 300.342 164.324 300.108 163.808 299.88C163.304 299.64 162.866 299.286 162.494 298.818C162.134 298.338 161.954 297.702 161.954 296.91C161.954 296.166 162.14 295.518 162.512 294.966C162.884 294.414 163.406 293.994 164.078 293.706C164.75 293.406 165.518 293.256 166.382 293.256C167.678 293.256 168.728 293.574 169.532 294.21C170.348 294.834 170.798 295.71 170.882 296.838H168.11C168.086 296.406 167.9 296.052 167.552 295.776C167.216 295.488 166.766 295.344 166.202 295.344C165.71 295.344 165.314 295.47 165.014 295.722C164.726 295.974 164.582 296.34 164.582 296.82C164.582 297.156 164.69 297.438 164.906 297.666C165.134 297.882 165.41 298.062 165.734 298.206C166.07 298.338 166.538 298.494 167.138 298.674C167.954 298.914 168.62 299.154 169.136 299.394C169.652 299.634 170.096 299.994 170.468 300.474C170.84 300.954 171.026 301.584 171.026 302.364C171.026 303.036 170.852 303.66 170.504 304.236C170.156 304.812 169.646 305.274 168.974 305.622C168.302 305.958 167.504 306.126 166.58 306.126ZM174.489 294.84C174.045 294.84 173.673 294.702 173.373 294.426C173.085 294.138 172.941 293.784 172.941 293.364C172.941 292.944 173.085 292.596 173.373 292.32C173.673 292.032 174.045 291.888 174.489 291.888C174.933 291.888 175.299 292.032 175.587 292.32C175.887 292.596 176.037 292.944 176.037 293.364C176.037 293.784 175.887 294.138 175.587 294.426C175.299 294.702 174.933 294.84 174.489 294.84ZM175.731 296.028V306H173.211V296.028H175.731ZM182.127 295.866C182.871 295.866 183.525 296.016 184.089 296.316C184.653 296.604 185.097 296.982 185.421 297.45V296.028H187.959V306.072C187.959 306.996 187.773 307.818 187.401 308.538C187.029 309.27 186.471 309.846 185.727 310.266C184.983 310.698 184.083 310.914 183.027 310.914C181.611 310.914 180.447 310.584 179.535 309.924C178.635 309.264 178.125 308.364 178.005 307.224H180.507C180.639 307.68 180.921 308.04 181.353 308.304C181.797 308.58 182.331 308.718 182.955 308.718C183.687 308.718 184.281 308.496 184.737 308.052C185.193 307.62 185.421 306.96 185.421 306.072V304.524C185.097 304.992 184.647 305.382 184.071 305.694C183.507 306.006 182.859 306.162 182.127 306.162C181.287 306.162 180.519 305.946 179.823 305.514C179.127 305.082 178.575 304.476 178.167 303.696C177.771 302.904 177.573 301.998 177.573 300.978C177.573 299.97 177.771 299.076 178.167 298.296C178.575 297.516 179.121 296.916 179.805 296.496C180.501 296.076 181.275 295.866 182.127 295.866ZM185.421 301.014C185.421 300.402 185.301 299.88 185.061 299.448C184.821 299.004 184.497 298.668 184.089 298.44C183.681 298.2 183.243 298.08 182.775 298.08C182.307 298.08 181.875 298.194 181.479 298.422C181.083 298.65 180.759 298.986 180.507 299.43C180.267 299.862 180.147 300.378 180.147 300.978C180.147 301.578 180.267 302.106 180.507 302.562C180.759 303.006 181.083 303.348 181.479 303.588C181.887 303.828 182.319 303.948 182.775 303.948C183.243 303.948 183.681 303.834 184.089 303.606C184.497 303.366 184.821 303.03 185.061 302.598C185.301 302.154 185.421 301.626 185.421 301.014ZM195.946 295.884C197.134 295.884 198.094 296.262 198.826 297.018C199.558 297.762 199.924 298.806 199.924 300.15V306H197.404V300.492C197.404 299.7 197.206 299.094 196.81 298.674C196.414 298.242 195.874 298.026 195.19 298.026C194.494 298.026 193.942 298.242 193.534 298.674C193.138 299.094 192.94 299.7 192.94 300.492V306H190.42V296.028H192.94V297.27C193.276 296.838 193.702 296.502 194.218 296.262C194.746 296.01 195.322 295.884 195.946 295.884ZM209.129 293.436V306H206.609V293.436H209.129ZM217.145 295.884C218.333 295.884 219.293 296.262 220.025 297.018C220.757 297.762 221.123 298.806 221.123 300.15V306H218.603V300.492C218.603 299.7 218.405 299.094 218.009 298.674C217.613 298.242 217.073 298.026 216.389 298.026C215.693 298.026 215.141 298.242 214.733 298.674C214.337 299.094 214.139 299.7 214.139 300.492V306H211.619V296.028H214.139V297.27C214.475 296.838 214.901 296.502 215.417 296.262C215.945 296.01 216.521 295.884 217.145 295.884Z" fill="#121317"/>
<rect x="0.5" y="84.5" width="383" height="47" rx="3.5" fill="white"/>
<path d="M16.688 109.584C16.688 108.688 16.8693 107.904 17.232 107.232C17.5947 106.549 18.0907 106.021 18.72 105.648C19.36 105.275 20.0693 105.088 20.848 105.088C21.616 105.088 22.2827 105.253 22.848 105.584C23.4133 105.915 23.8347 106.331 24.112 106.832V105.232H25.584V114H24.112V112.368C23.824 112.88 23.392 113.307 22.816 113.648C22.2507 113.979 21.5893 114.144 20.832 114.144C20.0533 114.144 19.3493 113.952 18.72 113.568C18.0907 113.184 17.5947 112.645 17.232 111.952C16.8693 111.259 16.688 110.469 16.688 109.584ZM24.112 109.6C24.112 108.939 23.9787 108.363 23.712 107.872C23.4453 107.381 23.0827 107.008 22.624 106.752C22.176 106.485 21.68 106.352 21.136 106.352C20.592 106.352 20.096 106.48 19.648 106.736C19.2 106.992 18.8427 107.365 18.576 107.856C18.3093 108.347 18.176 108.923 18.176 109.584C18.176 110.256 18.3093 110.843 18.576 111.344C18.8427 111.835 19.2 112.213 19.648 112.48C20.096 112.736 20.592 112.864 21.136 112.864C21.68 112.864 22.176 112.736 22.624 112.48C23.0827 112.213 23.4453 111.835 23.712 111.344C23.9787 110.843 24.112 110.261 24.112 109.6ZM29.5005 106.656C29.7565 106.155 30.1192 105.765 30.5885 105.488C31.0685 105.211 31.6498 105.072 32.3325 105.072V106.576H31.9485C30.3165 106.576 29.5005 107.461 29.5005 109.232V114H28.0445V105.232H29.5005V106.656ZM38.9093 114L35.4693 110.128V114H34.0133V102.16H35.4693V109.12L38.8453 105.232H40.8773L36.7493 109.6L40.8933 114H38.9093ZM46.0716 114.144C45.2503 114.144 44.5036 113.957 43.8316 113.584C43.1703 113.211 42.6476 112.683 42.2636 112C41.8903 111.307 41.7036 110.507 41.7036 109.6C41.7036 108.704 41.8956 107.915 42.2796 107.232C42.6743 106.539 43.2076 106.011 43.8796 105.648C44.5516 105.275 45.3036 105.088 46.1356 105.088C46.9676 105.088 47.7196 105.275 48.3916 105.648C49.0636 106.011 49.5916 106.533 49.9756 107.216C50.3703 107.899 50.5676 108.693 50.5676 109.6C50.5676 110.507 50.365 111.307 49.9596 112C49.565 112.683 49.0263 113.211 48.3436 113.584C47.661 113.957 46.9036 114.144 46.0716 114.144ZM46.0716 112.864C46.5943 112.864 47.085 112.741 47.5436 112.496C48.0023 112.251 48.3703 111.883 48.6476 111.392C48.9356 110.901 49.0796 110.304 49.0796 109.6C49.0796 108.896 48.941 108.299 48.6636 107.808C48.3863 107.317 48.0236 106.955 47.5756 106.72C47.1276 106.475 46.6423 106.352 46.1196 106.352C45.5863 106.352 45.0956 106.475 44.6476 106.72C44.2103 106.955 43.8583 107.317 43.5916 107.808C43.325 108.299 43.1916 108.896 43.1916 109.6C43.1916 110.315 43.3196 110.917 43.5756 111.408C43.8423 111.899 44.1943 112.267 44.6316 112.512C45.069 112.747 45.549 112.864 46.0716 112.864ZM63.026 105.072C63.7087 105.072 64.3167 105.216 64.85 105.504C65.3833 105.781 65.8047 106.203 66.114 106.768C66.4233 107.333 66.578 108.021 66.578 108.832V114H65.138V109.04C65.138 108.165 64.9193 107.499 64.482 107.04C64.0553 106.571 63.474 106.336 62.738 106.336C61.9807 106.336 61.378 106.581 60.93 107.072C60.482 107.552 60.258 108.251 60.258 109.168V114H58.818V109.04C58.818 108.165 58.5993 107.499 58.162 107.04C57.7353 106.571 57.154 106.336 56.418 106.336C55.6607 106.336 55.058 106.581 54.61 107.072C54.162 107.552 53.938 108.251 53.938 109.168V114H52.482V105.232H53.938V106.496C54.226 106.037 54.61 105.685 55.09 105.44C55.5807 105.195 56.1193 105.072 56.706 105.072C57.442 105.072 58.0927 105.237 58.658 105.568C59.2233 105.899 59.6447 106.384 59.922 107.024C60.1673 106.405 60.5727 105.925 61.138 105.584C61.7033 105.243 62.3327 105.072 63.026 105.072ZM68.4224 109.584C68.4224 108.688 68.6037 107.904 68.9664 107.232C69.329 106.549 69.825 106.021 70.4544 105.648C71.0944 105.275 71.8037 105.088 72.5824 105.088C73.3504 105.088 74.017 105.253 74.5824 105.584C75.1477 105.915 75.569 106.331 75.8464 106.832V105.232H77.3184V114H75.8464V112.368C75.5584 112.88 75.1264 113.307 74.5504 113.648C73.985 113.979 73.3237 114.144 72.5664 114.144C71.7877 114.144 71.0837 113.952 70.4544 113.568C69.825 113.184 69.329 112.645 68.9664 111.952C68.6037 111.259 68.4224 110.469 68.4224 109.584ZM75.8464 109.6C75.8464 108.939 75.713 108.363 75.4464 107.872C75.1797 107.381 74.817 107.008 74.3584 106.752C73.9104 106.485 73.4144 106.352 72.8704 106.352C72.3264 106.352 71.8304 106.48 71.3824 106.736C70.9344 106.992 70.577 107.365 70.3104 107.856C70.0437 108.347 69.9104 108.923 69.9104 109.584C69.9104 110.256 70.0437 110.843 70.3104 111.344C70.577 111.835 70.9344 112.213 71.3824 112.48C71.8304 112.736 72.3264 112.864 72.8704 112.864C73.4144 112.864 73.9104 112.736 74.3584 112.48C74.817 112.213 75.1797 111.835 75.4464 111.344C75.713 110.843 75.8464 110.261 75.8464 109.6ZM80.5309 103.808C80.2535 103.808 80.0189 103.712 79.8269 103.52C79.6349 103.328 79.5389 103.093 79.5389 102.816C79.5389 102.539 79.6349 102.304 79.8269 102.112C80.0189 101.92 80.2535 101.824 80.5309 101.824C80.7975 101.824 81.0215 101.92 81.2029 102.112C81.3949 102.304 81.4909 102.539 81.4909 102.816C81.4909 103.093 81.3949 103.328 81.2029 103.52C81.0215 103.712 80.7975 103.808 80.5309 103.808ZM81.2349 105.232V114H79.7789V105.232H81.2349ZM87.9884 105.072C89.055 105.072 89.919 105.397 90.5804 106.048C91.2417 106.688 91.5724 107.616 91.5724 108.832V114H90.1324V109.04C90.1324 108.165 89.9137 107.499 89.4764 107.04C89.039 106.571 88.4417 106.336 87.6844 106.336C86.9164 106.336 86.303 106.576 85.8444 107.056C85.3964 107.536 85.1724 108.235 85.1724 109.152V114H83.7164V105.232H85.1724V106.48C85.4604 106.032 85.8497 105.685 86.3404 105.44C86.8417 105.195 87.391 105.072 87.9884 105.072ZM94.7028 103.808C94.4254 103.808 94.1908 103.712 93.9988 103.52C93.8068 103.328 93.7108 103.093 93.7108 102.816C93.7108 102.539 93.8068 102.304 93.9988 102.112C94.1908 101.92 94.4254 101.824 94.7028 101.824C94.9694 101.824 95.1934 101.92 95.3748 102.112C95.5668 102.304 95.6628 102.539 95.6628 102.816C95.6628 103.093 95.5668 103.328 95.3748 103.52C95.1934 103.712 94.9694 103.808 94.7028 103.808ZM95.4068 105.232V114H93.9508V105.232H95.4068ZM105.888 103.744C107.072 103.744 108.102 103.968 108.976 104.416C109.851 104.864 110.523 105.493 110.992 106.304C111.462 107.104 111.696 108.032 111.696 109.088C111.696 109.931 111.558 110.741 111.28 111.52C111.003 112.288 110.598 112.912 110.064 113.392C109.542 113.872 108.928 114.112 108.224 114.112C107.691 114.112 107.28 113.979 106.992 113.712C106.704 113.445 106.539 113.083 106.496 112.624C106.166 113.083 105.744 113.445 105.232 113.712C104.731 113.979 104.198 114.112 103.632 114.112C102.822 114.112 102.182 113.867 101.712 113.376C101.254 112.875 101.024 112.203 101.024 111.36C101.024 110.56 101.19 109.813 101.52 109.12C101.862 108.427 102.331 107.872 102.928 107.456C103.526 107.029 104.203 106.816 104.96 106.816C105.974 106.816 106.656 107.2 107.008 107.968L107.184 106.976H108.448L107.648 111.6C107.616 111.803 107.6 111.989 107.6 112.16C107.6 112.8 107.883 113.12 108.448 113.12C108.875 113.12 109.243 112.917 109.552 112.512C109.872 112.107 110.112 111.6 110.272 110.992C110.432 110.373 110.512 109.765 110.512 109.168C110.512 107.771 110.091 106.688 109.248 105.92C108.416 105.152 107.238 104.768 105.712 104.768C104.443 104.768 103.296 105.077 102.272 105.696C101.259 106.304 100.464 107.141 99.8883 108.208C99.3123 109.275 99.0243 110.453 99.0243 111.744C99.0136 113.152 99.4349 114.235 100.288 114.992C101.142 115.76 102.326 116.144 103.84 116.144C104.843 116.144 105.728 115.963 106.496 115.6L106.688 116.592C105.739 116.987 104.694 117.184 103.552 117.184C102.411 117.184 101.403 116.965 100.528 116.528C99.6643 116.101 98.9923 115.483 98.5123 114.672C98.0429 113.872 97.8083 112.939 97.8083 111.872C97.8083 110.368 98.1549 108.997 98.8483 107.76C99.5416 106.512 100.502 105.531 101.728 104.816C102.966 104.101 104.352 103.744 105.888 103.744ZM104.064 112.976C104.544 112.976 104.987 112.837 105.392 112.56C105.798 112.272 106.118 111.888 106.352 111.408C106.587 110.917 106.704 110.384 106.704 109.808C106.704 109.253 106.55 108.805 106.24 108.464C105.942 108.112 105.515 107.936 104.96 107.936C104.448 107.936 103.995 108.091 103.6 108.4C103.216 108.699 102.918 109.099 102.704 109.6C102.491 110.091 102.384 110.603 102.384 111.136C102.384 111.701 102.528 112.149 102.816 112.48C103.104 112.811 103.52 112.976 104.064 112.976ZM113.675 112.832C115.03 111.744 116.091 110.853 116.859 110.16C117.627 109.456 118.273 108.725 118.795 107.968C119.329 107.2 119.595 106.448 119.595 105.712C119.595 105.019 119.425 104.475 119.083 104.08C118.753 103.675 118.214 103.472 117.467 103.472C116.742 103.472 116.177 103.701 115.771 104.16C115.377 104.608 115.163 105.211 115.131 105.968H113.723C113.766 104.773 114.129 103.851 114.811 103.2C115.494 102.549 116.374 102.224 117.451 102.224C118.55 102.224 119.419 102.528 120.059 103.136C120.71 103.744 121.035 104.581 121.035 105.648C121.035 106.533 120.769 107.397 120.235 108.24C119.713 109.072 119.115 109.808 118.443 110.448C117.771 111.077 116.913 111.813 115.867 112.656H121.371V113.872H113.675V112.832ZM123.023 105.344C123.097 104.363 123.476 103.595 124.159 103.04C124.841 102.485 125.727 102.208 126.815 102.208C127.54 102.208 128.164 102.341 128.687 102.608C129.22 102.864 129.62 103.216 129.887 103.664C130.164 104.112 130.303 104.619 130.303 105.184C130.303 105.845 130.111 106.416 129.727 106.896C129.353 107.376 128.863 107.685 128.255 107.824V107.904C128.948 108.075 129.497 108.411 129.903 108.912C130.308 109.413 130.51 110.069 130.51 110.88C130.51 111.488 130.372 112.037 130.095 112.528C129.817 113.008 129.401 113.387 128.847 113.664C128.292 113.941 127.625 114.08 126.847 114.08C125.716 114.08 124.788 113.787 124.062 113.2C123.337 112.603 122.932 111.76 122.847 110.672H124.255C124.329 111.312 124.591 111.835 125.039 112.24C125.487 112.645 126.084 112.848 126.831 112.848C127.577 112.848 128.143 112.656 128.527 112.272C128.921 111.877 129.119 111.371 129.119 110.752C129.119 109.952 128.852 109.376 128.319 109.024C127.785 108.672 126.98 108.496 125.903 108.496H125.535V107.28H125.919C126.9 107.269 127.641 107.109 128.143 106.8C128.644 106.48 128.895 105.989 128.895 105.328C128.895 104.763 128.708 104.309 128.335 103.968C127.972 103.627 127.449 103.456 126.766 103.456C126.105 103.456 125.572 103.627 125.167 103.968C124.761 104.309 124.521 104.768 124.447 105.344H123.023ZM132.3 112.832C133.655 111.744 134.716 110.853 135.484 110.16C136.252 109.456 136.898 108.725 137.42 107.968C137.954 107.2 138.22 106.448 138.22 105.712C138.22 105.019 138.05 104.475 137.708 104.08C137.378 103.675 136.839 103.472 136.092 103.472C135.367 103.472 134.802 103.701 134.396 104.16C134.002 104.608 133.788 105.211 133.756 105.968H132.348C132.391 104.773 132.754 103.851 133.436 103.2C134.119 102.549 134.999 102.224 136.076 102.224C137.175 102.224 138.044 102.528 138.684 103.136C139.335 103.744 139.66 104.581 139.66 105.648C139.66 106.533 139.394 107.397 138.86 108.24C138.338 109.072 137.74 109.808 137.068 110.448C136.396 111.077 135.538 111.813 134.492 112.656H139.996V113.872H132.3V112.832ZM141.328 111.424V110.32L146.944 102.544H148.688V110.16H150.288V111.424H148.688V114H147.248V111.424H141.328ZM147.312 104.064L143.008 110.16H147.312V104.064ZM155.598 105.088C156.355 105.088 157.017 105.253 157.582 105.584C158.158 105.915 158.585 106.331 158.862 106.832V105.232H160.334V114.192C160.334 114.992 160.163 115.701 159.822 116.32C159.481 116.949 158.99 117.44 158.35 117.792C157.721 118.144 156.985 118.32 156.142 118.32C154.99 118.32 154.03 118.048 153.262 117.504C152.494 116.96 152.041 116.219 151.902 115.28H153.342C153.502 115.813 153.833 116.24 154.334 116.56C154.835 116.891 155.438 117.056 156.142 117.056C156.942 117.056 157.593 116.805 158.094 116.304C158.606 115.803 158.862 115.099 158.862 114.192V112.352C158.574 112.864 158.147 113.291 157.582 113.632C157.017 113.973 156.355 114.144 155.598 114.144C154.819 114.144 154.11 113.952 153.47 113.568C152.841 113.184 152.345 112.645 151.982 111.952C151.619 111.259 151.438 110.469 151.438 109.584C151.438 108.688 151.619 107.904 151.982 107.232C152.345 106.549 152.841 106.021 153.47 105.648C154.11 105.275 154.819 105.088 155.598 105.088ZM158.862 109.6C158.862 108.939 158.729 108.363 158.462 107.872C158.195 107.381 157.833 107.008 157.374 106.752C156.926 106.485 156.43 106.352 155.886 106.352C155.342 106.352 154.846 106.48 154.398 106.736C153.95 106.992 153.593 107.365 153.326 107.856C153.059 108.347 152.926 108.923 152.926 109.584C152.926 110.256 153.059 110.843 153.326 111.344C153.593 111.835 153.95 112.213 154.398 112.48C154.846 112.736 155.342 112.864 155.886 112.864C156.43 112.864 156.926 112.736 157.374 112.48C157.833 112.213 158.195 111.835 158.462 111.344C158.729 110.843 158.862 110.261 158.862 109.6ZM173.339 105.072C174.021 105.072 174.629 105.216 175.163 105.504C175.696 105.781 176.117 106.203 176.427 106.768C176.736 107.333 176.891 108.021 176.891 108.832V114H175.451V109.04C175.451 108.165 175.232 107.499 174.795 107.04C174.368 106.571 173.787 106.336 173.051 106.336C172.293 106.336 171.691 106.581 171.243 107.072C170.795 107.552 170.571 108.251 170.571 109.168V114H169.131V109.04C169.131 108.165 168.912 107.499 168.475 107.04C168.048 106.571 167.467 106.336 166.731 106.336C165.973 106.336 165.371 106.581 164.923 107.072C164.475 107.552 164.251 108.251 164.251 109.168V114H162.795V105.232H164.251V106.496C164.539 106.037 164.923 105.685 165.403 105.44C165.893 105.195 166.432 105.072 167.019 105.072C167.755 105.072 168.405 105.237 168.971 105.568C169.536 105.899 169.957 106.384 170.235 107.024C170.48 106.405 170.885 105.925 171.451 105.584C172.016 105.243 172.645 105.072 173.339 105.072ZM178.735 109.584C178.735 108.688 178.916 107.904 179.279 107.232C179.642 106.549 180.138 106.021 180.767 105.648C181.407 105.275 182.116 105.088 182.895 105.088C183.663 105.088 184.33 105.253 184.895 105.584C185.46 105.915 185.882 106.331 186.159 106.832V105.232H187.631V114H186.159V112.368C185.871 112.88 185.439 113.307 184.863 113.648C184.298 113.979 183.636 114.144 182.879 114.144C182.1 114.144 181.396 113.952 180.767 113.568C180.138 113.184 179.642 112.645 179.279 111.952C178.916 111.259 178.735 110.469 178.735 109.584ZM186.159 109.6C186.159 108.939 186.026 108.363 185.759 107.872C185.492 107.381 185.13 107.008 184.671 106.752C184.223 106.485 183.727 106.352 183.183 106.352C182.639 106.352 182.143 106.48 181.695 106.736C181.247 106.992 180.89 107.365 180.623 107.856C180.356 108.347 180.223 108.923 180.223 109.584C180.223 110.256 180.356 110.843 180.623 111.344C180.89 111.835 181.247 112.213 181.695 112.48C182.143 112.736 182.639 112.864 183.183 112.864C183.727 112.864 184.223 112.736 184.671 112.48C185.13 112.213 185.492 111.835 185.759 111.344C186.026 110.843 186.159 110.261 186.159 109.6ZM190.843 103.808C190.566 103.808 190.331 103.712 190.139 103.52C189.947 103.328 189.851 103.093 189.851 102.816C189.851 102.539 189.947 102.304 190.139 102.112C190.331 101.92 190.566 101.824 190.843 101.824C191.11 101.824 191.334 101.92 191.515 102.112C191.707 102.304 191.803 102.539 191.803 102.816C191.803 103.093 191.707 103.328 191.515 103.52C191.334 103.712 191.11 103.808 190.843 103.808ZM191.547 105.232V114H190.091V105.232H191.547ZM195.485 102.16V114H194.029V102.16H195.485ZM198.43 114.096C198.153 114.096 197.918 114 197.726 113.808C197.534 113.616 197.438 113.381 197.438 113.104C197.438 112.827 197.534 112.592 197.726 112.4C197.918 112.208 198.153 112.112 198.43 112.112C198.697 112.112 198.921 112.208 199.102 112.4C199.294 112.592 199.39 112.827 199.39 113.104C199.39 113.381 199.294 113.616 199.102 113.808C198.921 114 198.697 114.096 198.43 114.096ZM200.782 109.6C200.782 108.693 200.963 107.904 201.326 107.232C201.688 106.549 202.19 106.021 202.83 105.648C203.48 105.275 204.222 105.088 205.054 105.088C206.131 105.088 207.016 105.349 207.71 105.872C208.414 106.395 208.878 107.12 209.102 108.048H207.534C207.384 107.515 207.091 107.093 206.654 106.784C206.227 106.475 205.694 106.32 205.054 106.32C204.222 106.32 203.55 106.608 203.038 107.184C202.526 107.749 202.27 108.555 202.27 109.6C202.27 110.656 202.526 111.472 203.038 112.048C203.55 112.624 204.222 112.912 205.054 112.912C205.694 112.912 206.227 112.763 206.654 112.464C207.08 112.165 207.374 111.739 207.534 111.184H209.102C208.867 112.08 208.398 112.8 207.694 113.344C206.99 113.877 206.11 114.144 205.054 114.144C204.222 114.144 203.48 113.957 202.83 113.584C202.19 113.211 201.688 112.683 201.326 112C200.963 111.317 200.782 110.517 200.782 109.6ZM214.869 114.144C214.047 114.144 213.301 113.957 212.629 113.584C211.967 113.211 211.445 112.683 211.061 112C210.687 111.307 210.501 110.507 210.501 109.6C210.501 108.704 210.693 107.915 211.077 107.232C211.471 106.539 212.005 106.011 212.677 105.648C213.349 105.275 214.101 105.088 214.933 105.088C215.765 105.088 216.517 105.275 217.189 105.648C217.861 106.011 218.389 106.533 218.773 107.216C219.167 107.899 219.365 108.693 219.365 109.6C219.365 110.507 219.162 111.307 218.757 112C218.362 112.683 217.823 113.211 217.141 113.584C216.458 113.957 215.701 114.144 214.869 114.144ZM214.869 112.864C215.391 112.864 215.882 112.741 216.341 112.496C216.799 112.251 217.167 111.883 217.445 111.392C217.733 110.901 217.877 110.304 217.877 109.6C217.877 108.896 217.738 108.299 217.461 107.808C217.183 107.317 216.821 106.955 216.373 106.72C215.925 106.475 215.439 106.352 214.917 106.352C214.383 106.352 213.893 106.475 213.445 106.72C213.007 106.955 212.655 107.317 212.389 107.808C212.122 108.299 211.989 108.896 211.989 109.6C211.989 110.315 212.117 110.917 212.373 111.408C212.639 111.899 212.991 112.267 213.429 112.512C213.866 112.747 214.346 112.864 214.869 112.864ZM231.823 105.072C232.506 105.072 233.114 105.216 233.647 105.504C234.18 105.781 234.602 106.203 234.911 106.768C235.22 107.333 235.375 108.021 235.375 108.832V114H233.935V109.04C233.935 108.165 233.716 107.499 233.279 107.04C232.852 106.571 232.271 106.336 231.535 106.336C230.778 106.336 230.175 106.581 229.727 107.072C229.279 107.552 229.055 108.251 229.055 109.168V114H227.615V109.04C227.615 108.165 227.396 107.499 226.959 107.04C226.532 106.571 225.951 106.336 225.215 106.336C224.458 106.336 223.855 106.581 223.407 107.072C222.959 107.552 222.735 108.251 222.735 109.168V114H221.279V105.232H222.735V106.496C223.023 106.037 223.407 105.685 223.887 105.44C224.378 105.195 224.916 105.072 225.503 105.072C226.239 105.072 226.89 105.237 227.455 105.568C228.02 105.899 228.442 106.384 228.719 107.024C228.964 106.405 229.37 105.925 229.935 105.584C230.5 105.243 231.13 105.072 231.823 105.072Z" fill="#D92D20"/>
<rect x="0.5" y="84.5" width="383" height="47" rx="3.5" stroke="#D92D20"/>
<path d="M4.172 152.098C3.528 152.098 2.94933 151.986 2.436 151.762C1.932 151.529 1.53533 151.211 1.246 150.81C0.956667 150.399 0.807333 149.928 0.798 149.396H2.156C2.20267 149.853 2.38933 150.241 2.716 150.558C3.052 150.866 3.53733 151.02 4.172 151.02C4.77867 151.02 5.25467 150.871 5.6 150.572C5.95467 150.264 6.132 149.872 6.132 149.396C6.132 149.023 6.02933 148.719 5.824 148.486C5.61867 148.253 5.362 148.075 5.054 147.954C4.746 147.833 4.33067 147.702 3.808 147.562C3.164 147.394 2.646 147.226 2.254 147.058C1.87133 146.89 1.54 146.629 1.26 146.274C0.989333 145.91 0.854 145.425 0.854 144.818C0.854 144.286 0.989333 143.815 1.26 143.404C1.53067 142.993 1.90867 142.676 2.394 142.452C2.88867 142.228 3.45333 142.116 4.088 142.116C5.00267 142.116 5.74933 142.345 6.328 142.802C6.916 143.259 7.24733 143.866 7.322 144.622H5.922C5.87533 144.249 5.67933 143.922 5.334 143.642C4.98867 143.353 4.53133 143.208 3.962 143.208C3.43 143.208 2.996 143.348 2.66 143.628C2.324 143.899 2.156 144.281 2.156 144.776C2.156 145.131 2.254 145.42 2.45 145.644C2.65533 145.868 2.90267 146.041 3.192 146.162C3.49067 146.274 3.906 146.405 4.438 146.554C5.082 146.731 5.6 146.909 5.992 147.086C6.384 147.254 6.72 147.52 7 147.884C7.28 148.239 7.42 148.724 7.42 149.34C7.42 149.816 7.294 150.264 7.042 150.684C6.79 151.104 6.41667 151.445 5.922 151.706C5.42733 151.967 4.844 152.098 4.172 152.098ZM12.6408 152.126C11.9221 152.126 11.2688 151.963 10.6808 151.636C10.1021 151.309 9.6448 150.847 9.3088 150.25C8.98213 149.643 8.8188 148.943 8.8188 148.15C8.8188 147.366 8.9868 146.675 9.3228 146.078C9.66813 145.471 10.1348 145.009 10.7228 144.692C11.3108 144.365 11.9688 144.202 12.6968 144.202C13.4248 144.202 14.0828 144.365 14.6708 144.692C15.2588 145.009 15.7208 145.467 16.0568 146.064C16.4021 146.661 16.5748 147.357 16.5748 148.15C16.5748 148.943 16.3975 149.643 16.0428 150.25C15.6975 150.847 15.2261 151.309 14.6288 151.636C14.0315 151.963 13.3688 152.126 12.6408 152.126ZM12.6408 151.006C13.0981 151.006 13.5275 150.899 13.9288 150.684C14.3301 150.469 14.6521 150.147 14.8948 149.718C15.1468 149.289 15.2728 148.766 15.2728 148.15C15.2728 147.534 15.1515 147.011 14.9088 146.582C14.6661 146.153 14.3488 145.835 13.9568 145.63C13.5648 145.415 13.1401 145.308 12.6828 145.308C12.2161 145.308 11.7868 145.415 11.3948 145.63C11.0121 145.835 10.7041 146.153 10.4708 146.582C10.2375 147.011 10.1208 147.534 10.1208 148.15C10.1208 148.775 10.2328 149.303 10.4568 149.732C10.6901 150.161 10.9981 150.483 11.3808 150.698C11.7635 150.903 12.1835 151.006 12.6408 151.006ZM19.5239 145.574C19.7479 145.135 20.0652 144.795 20.4759 144.552C20.8959 144.309 21.4045 144.188 22.0019 144.188V145.504H21.6659C20.2379 145.504 19.5239 146.279 19.5239 147.828V152H18.2499V144.328H19.5239V145.574ZM24.7465 145.574C24.9705 145.135 25.2879 144.795 25.6985 144.552C26.1185 144.309 26.6272 144.188 27.2245 144.188V145.504H26.8885C25.4605 145.504 24.7465 146.279 24.7465 147.828V152H23.4725V144.328H24.7465V145.574ZM35.3032 144.328L30.6832 155.612H29.3672L30.8792 151.916L27.7852 144.328H29.1992L31.6072 150.544L33.9872 144.328H35.3032ZM38.2359 142.242L38.0819 149.242H37.0179L36.8639 142.242H38.2359ZM37.6059 152.084C37.3632 152.084 37.1579 152 36.9899 151.832C36.8219 151.664 36.7379 151.459 36.7379 151.216C36.7379 150.973 36.8219 150.768 36.9899 150.6C37.1579 150.432 37.3632 150.348 37.6059 150.348C37.8392 150.348 38.0352 150.432 38.1939 150.6C38.3619 150.768 38.4459 150.973 38.4459 151.216C38.4459 151.459 38.3619 151.664 38.1939 151.832C38.0352 152 37.8392 152.084 37.6059 152.084ZM50.4922 142.242V143.278H47.8322V152H46.5582V143.278H43.8842V142.242H50.4922ZM55.8684 144.188C56.4471 144.188 56.9698 144.314 57.4364 144.566C57.9031 144.809 58.2671 145.177 58.5284 145.672C58.7991 146.167 58.9344 146.769 58.9344 147.478V152H57.6744V147.66C57.6744 146.895 57.4831 146.311 57.1004 145.91C56.7178 145.499 56.1951 145.294 55.5324 145.294C54.8604 145.294 54.3238 145.504 53.9224 145.924C53.5304 146.344 53.3344 146.955 53.3344 147.758V152H52.0604V141.64H53.3344V145.42C53.5864 145.028 53.9318 144.725 54.3704 144.51C54.8184 144.295 55.3178 144.188 55.8684 144.188ZM61.6735 143.082C61.4308 143.082 61.2255 142.998 61.0575 142.83C60.8895 142.662 60.8055 142.457 60.8055 142.214C60.8055 141.971 60.8895 141.766 61.0575 141.598C61.2255 141.43 61.4308 141.346 61.6735 141.346C61.9068 141.346 62.1028 141.43 62.2615 141.598C62.4295 141.766 62.5135 141.971 62.5135 142.214C62.5135 142.457 62.4295 142.662 62.2615 142.83C62.1028 142.998 61.9068 143.082 61.6735 143.082ZM62.2895 144.328V152H61.0155V144.328H62.2895ZM67.1768 152.126C66.5888 152.126 66.0615 152.028 65.5948 151.832C65.1281 151.627 64.7595 151.347 64.4888 150.992C64.2181 150.628 64.0688 150.213 64.0408 149.746H65.3568C65.3941 150.129 65.5715 150.441 65.8888 150.684C66.2155 150.927 66.6401 151.048 67.1628 151.048C67.6481 151.048 68.0308 150.941 68.3108 150.726C68.5908 150.511 68.7308 150.241 68.7308 149.914C68.7308 149.578 68.5815 149.331 68.2828 149.172C67.9841 149.004 67.5221 148.841 66.8968 148.682C66.3275 148.533 65.8608 148.383 65.4968 148.234C65.1421 148.075 64.8341 147.847 64.5728 147.548C64.3208 147.24 64.1948 146.839 64.1948 146.344C64.1948 145.952 64.3115 145.593 64.5448 145.266C64.7781 144.939 65.1095 144.683 65.5388 144.496C65.9681 144.3 66.4581 144.202 67.0088 144.202C67.8581 144.202 68.5441 144.417 69.0668 144.846C69.5895 145.275 69.8695 145.863 69.9068 146.61H68.6328C68.6048 146.209 68.4415 145.887 68.1428 145.644C67.8535 145.401 67.4615 145.28 66.9668 145.28C66.5095 145.28 66.1455 145.378 65.8748 145.574C65.6041 145.77 65.4688 146.027 65.4688 146.344C65.4688 146.596 65.5481 146.806 65.7068 146.974C65.8748 147.133 66.0801 147.263 66.3228 147.366C66.5748 147.459 66.9201 147.567 67.3588 147.688C67.9095 147.837 68.3575 147.987 68.7028 148.136C69.0481 148.276 69.3421 148.491 69.5848 148.78C69.8368 149.069 69.9675 149.447 69.9768 149.914C69.9768 150.334 69.8601 150.712 69.6268 151.048C69.3935 151.384 69.0621 151.65 68.6328 151.846C68.2128 152.033 67.7275 152.126 67.1768 152.126ZM82.5077 147.87C82.5077 148.113 82.4937 148.369 82.4657 148.64H76.3337C76.3804 149.396 76.637 149.989 77.1037 150.418C77.5797 150.838 78.1537 151.048 78.8257 151.048C79.3764 151.048 79.8337 150.922 80.1977 150.67C80.571 150.409 80.8324 150.063 80.9817 149.634H82.3537C82.1484 150.371 81.7377 150.973 81.1217 151.44C80.5057 151.897 79.7404 152.126 78.8257 152.126C78.0977 152.126 77.4444 151.963 76.8657 151.636C76.2964 151.309 75.8484 150.847 75.5217 150.25C75.195 149.643 75.0317 148.943 75.0317 148.15C75.0317 147.357 75.1904 146.661 75.5077 146.064C75.825 145.467 76.2684 145.009 76.8377 144.692C77.4164 144.365 78.079 144.202 78.8257 144.202C79.5537 144.202 80.1977 144.361 80.7577 144.678C81.3177 144.995 81.747 145.434 82.0457 145.994C82.3537 146.545 82.5077 147.17 82.5077 147.87ZM81.1917 147.604C81.1917 147.119 81.0844 146.703 80.8697 146.358C80.655 146.003 80.361 145.737 79.9877 145.56C79.6237 145.373 79.2177 145.28 78.7697 145.28C78.1257 145.28 77.575 145.485 77.1177 145.896C76.6697 146.307 76.413 146.876 76.3477 147.604H81.1917ZM93.4153 144.188C94.0127 144.188 94.5447 144.314 95.0113 144.566C95.478 144.809 95.8467 145.177 96.1173 145.672C96.388 146.167 96.5233 146.769 96.5233 147.478V152H95.2633V147.66C95.2633 146.895 95.072 146.311 94.6893 145.91C94.316 145.499 93.8073 145.294 93.1633 145.294C92.5007 145.294 91.9733 145.509 91.5813 145.938C91.1893 146.358 90.9933 146.969 90.9933 147.772V152H89.7333V147.66C89.7333 146.895 89.542 146.311 89.1593 145.91C88.786 145.499 88.2773 145.294 87.6333 145.294C86.9707 145.294 86.4433 145.509 86.0513 145.938C85.6593 146.358 85.4633 146.969 85.4633 147.772V152H84.1893V144.328H85.4633V145.434C85.7153 145.033 86.0513 144.725 86.4713 144.51C86.9007 144.295 87.372 144.188 87.8853 144.188C88.5293 144.188 89.0987 144.333 89.5933 144.622C90.088 144.911 90.4567 145.336 90.6993 145.896C90.914 145.355 91.2687 144.935 91.7633 144.636C92.258 144.337 92.8087 144.188 93.4153 144.188ZM98.1372 148.136C98.1372 147.352 98.2958 146.666 98.6132 146.078C98.9305 145.481 99.3645 145.019 99.9152 144.692C100.475 144.365 101.096 144.202 101.777 144.202C102.449 144.202 103.032 144.347 103.527 144.636C104.022 144.925 104.39 145.289 104.633 145.728V144.328H105.921V152H104.633V150.572C104.381 151.02 104.003 151.393 103.499 151.692C103.004 151.981 102.426 152.126 101.763 152.126C101.082 152.126 100.466 151.958 99.9152 151.622C99.3645 151.286 98.9305 150.815 98.6132 150.208C98.2958 149.601 98.1372 148.911 98.1372 148.136ZM104.633 148.15C104.633 147.571 104.516 147.067 104.283 146.638C104.05 146.209 103.732 145.882 103.331 145.658C102.939 145.425 102.505 145.308 102.029 145.308C101.553 145.308 101.119 145.42 100.727 145.644C100.335 145.868 100.022 146.195 99.7892 146.624C99.5558 147.053 99.4392 147.557 99.4392 148.136C99.4392 148.724 99.5558 149.237 99.7892 149.676C100.022 150.105 100.335 150.437 100.727 150.67C101.119 150.894 101.553 151.006 102.029 151.006C102.505 151.006 102.939 150.894 103.331 150.67C103.732 150.437 104.05 150.105 104.283 149.676C104.516 149.237 104.633 148.729 104.633 148.15ZM108.732 143.082C108.489 143.082 108.284 142.998 108.116 142.83C107.948 142.662 107.864 142.457 107.864 142.214C107.864 141.971 107.948 141.766 108.116 141.598C108.284 141.43 108.489 141.346 108.732 141.346C108.965 141.346 109.161 141.43 109.32 141.598C109.488 141.766 109.572 141.971 109.572 142.214C109.572 142.457 109.488 142.662 109.32 142.83C109.161 142.998 108.965 143.082 108.732 143.082ZM109.348 144.328V152H108.074V144.328H109.348ZM112.793 141.64V152H111.519V141.64H112.793ZM119.355 143.082C119.112 143.082 118.907 142.998 118.739 142.83C118.571 142.662 118.487 142.457 118.487 142.214C118.487 141.971 118.571 141.766 118.739 141.598C118.907 141.43 119.112 141.346 119.355 141.346C119.588 141.346 119.784 141.43 119.943 141.598C120.111 141.766 120.195 141.971 120.195 142.214C120.195 142.457 120.111 142.662 119.943 142.83C119.784 142.998 119.588 143.082 119.355 143.082ZM119.971 144.328V152H118.697V144.328H119.971ZM124.858 152.126C124.27 152.126 123.743 152.028 123.276 151.832C122.81 151.627 122.441 151.347 122.17 150.992C121.9 150.628 121.75 150.213 121.722 149.746H123.038C123.076 150.129 123.253 150.441 123.57 150.684C123.897 150.927 124.322 151.048 124.844 151.048C125.33 151.048 125.712 150.941 125.992 150.726C126.272 150.511 126.412 150.241 126.412 149.914C126.412 149.578 126.263 149.331 125.964 149.172C125.666 149.004 125.204 148.841 124.578 148.682C124.009 148.533 123.542 148.383 123.178 148.234C122.824 148.075 122.516 147.847 122.254 147.548C122.002 147.24 121.876 146.839 121.876 146.344C121.876 145.952 121.993 145.593 122.226 145.266C122.46 144.939 122.791 144.683 123.22 144.496C123.65 144.3 124.14 144.202 124.69 144.202C125.54 144.202 126.226 144.417 126.748 144.846C127.271 145.275 127.551 145.863 127.588 146.61H126.314C126.286 146.209 126.123 145.887 125.824 145.644C125.535 145.401 125.143 145.28 124.648 145.28C124.191 145.28 123.827 145.378 123.556 145.574C123.286 145.77 123.15 146.027 123.15 146.344C123.15 146.596 123.23 146.806 123.388 146.974C123.556 147.133 123.762 147.263 124.004 147.366C124.256 147.459 124.602 147.567 125.04 147.688C125.591 147.837 126.039 147.987 126.384 148.136C126.73 148.276 127.024 148.491 127.266 148.78C127.518 149.069 127.649 149.447 127.658 149.914C127.658 150.334 127.542 150.712 127.308 151.048C127.075 151.384 126.744 151.65 126.314 151.846C125.894 152.033 125.409 152.126 124.858 152.126ZM136.927 144.188C137.861 144.188 138.617 144.473 139.195 145.042C139.774 145.602 140.063 146.414 140.063 147.478V152H138.803V147.66C138.803 146.895 138.612 146.311 138.229 145.91C137.847 145.499 137.324 145.294 136.661 145.294C135.989 145.294 135.453 145.504 135.051 145.924C134.659 146.344 134.463 146.955 134.463 147.758V152H133.189V144.328H134.463V145.42C134.715 145.028 135.056 144.725 135.485 144.51C135.924 144.295 136.405 144.188 136.927 144.188ZM145.49 152.126C144.772 152.126 144.118 151.963 143.53 151.636C142.952 151.309 142.494 150.847 142.158 150.25C141.832 149.643 141.668 148.943 141.668 148.15C141.668 147.366 141.836 146.675 142.172 146.078C142.518 145.471 142.984 145.009 143.572 144.692C144.16 144.365 144.818 144.202 145.546 144.202C146.274 144.202 146.932 144.365 147.52 144.692C148.108 145.009 148.57 145.467 148.906 146.064C149.252 146.661 149.424 147.357 149.424 148.15C149.424 148.943 149.247 149.643 148.892 150.25C148.547 150.847 148.076 151.309 147.478 151.636C146.881 151.963 146.218 152.126 145.49 152.126ZM145.49 151.006C145.948 151.006 146.377 150.899 146.778 150.684C147.18 150.469 147.502 150.147 147.744 149.718C147.996 149.289 148.122 148.766 148.122 148.15C148.122 147.534 148.001 147.011 147.758 146.582C147.516 146.153 147.198 145.835 146.806 145.63C146.414 145.415 145.99 145.308 145.532 145.308C145.066 145.308 144.636 145.415 144.244 145.63C143.862 145.835 143.554 146.153 143.32 146.582C143.087 147.011 142.97 147.534 142.97 148.15C142.97 148.775 143.082 149.303 143.306 149.732C143.54 150.161 143.848 150.483 144.23 150.698C144.613 150.903 145.033 151.006 145.49 151.006ZM152.653 145.378V149.9C152.653 150.273 152.733 150.539 152.891 150.698C153.05 150.847 153.325 150.922 153.717 150.922H154.655V152H153.507C152.798 152 152.266 151.837 151.911 151.51C151.557 151.183 151.379 150.647 151.379 149.9V145.378H150.385V144.328H151.379V142.396H152.653V144.328H154.655V145.378H152.653ZM161.206 145.574C161.43 145.135 161.747 144.795 162.158 144.552C162.578 144.309 163.086 144.188 163.684 144.188V145.504H163.348C161.92 145.504 161.206 146.279 161.206 147.828V152H159.932V144.328H161.206V145.574ZM172.154 147.87C172.154 148.113 172.14 148.369 172.112 148.64H165.98C166.027 149.396 166.284 149.989 166.75 150.418C167.226 150.838 167.8 151.048 168.472 151.048C169.023 151.048 169.48 150.922 169.844 150.67C170.218 150.409 170.479 150.063 170.628 149.634H172C171.795 150.371 171.384 150.973 170.768 151.44C170.152 151.897 169.387 152.126 168.472 152.126C167.744 152.126 167.091 151.963 166.512 151.636C165.943 151.309 165.495 150.847 165.168 150.25C164.842 149.643 164.678 148.943 164.678 148.15C164.678 147.357 164.837 146.661 165.154 146.064C165.472 145.467 165.915 145.009 166.484 144.692C167.063 144.365 167.726 144.202 168.472 144.202C169.2 144.202 169.844 144.361 170.404 144.678C170.964 144.995 171.394 145.434 171.692 145.994C172 146.545 172.154 147.17 172.154 147.87ZM170.838 147.604C170.838 147.119 170.731 146.703 170.516 146.358C170.302 146.003 170.008 145.737 169.634 145.56C169.27 145.373 168.864 145.28 168.416 145.28C167.772 145.28 167.222 145.485 166.764 145.896C166.316 146.307 166.06 146.876 165.994 147.604H170.838ZM177 144.202C177.662 144.202 178.241 144.347 178.736 144.636C179.24 144.925 179.613 145.289 179.856 145.728V144.328H181.144V152.168C181.144 152.868 180.994 153.489 180.696 154.03C180.397 154.581 179.968 155.01 179.408 155.318C178.857 155.626 178.213 155.78 177.476 155.78C176.468 155.78 175.628 155.542 174.956 155.066C174.284 154.59 173.887 153.941 173.766 153.12H175.026C175.166 153.587 175.455 153.96 175.894 154.24C176.332 154.529 176.86 154.674 177.476 154.674C178.176 154.674 178.745 154.455 179.184 154.016C179.632 153.577 179.856 152.961 179.856 152.168V150.558C179.604 151.006 179.23 151.379 178.736 151.678C178.241 151.977 177.662 152.126 177 152.126C176.318 152.126 175.698 151.958 175.138 151.622C174.587 151.286 174.153 150.815 173.836 150.208C173.518 149.601 173.36 148.911 173.36 148.136C173.36 147.352 173.518 146.666 173.836 146.078C174.153 145.481 174.587 145.019 175.138 144.692C175.698 144.365 176.318 144.202 177 144.202ZM179.856 148.15C179.856 147.571 179.739 147.067 179.506 146.638C179.272 146.209 178.955 145.882 178.554 145.658C178.162 145.425 177.728 145.308 177.252 145.308C176.776 145.308 176.342 145.42 175.95 145.644C175.558 145.868 175.245 146.195 175.012 146.624C174.778 147.053 174.662 147.557 174.662 148.136C174.662 148.724 174.778 149.237 175.012 149.676C175.245 150.105 175.558 150.437 175.95 150.67C176.342 150.894 176.776 151.006 177.252 151.006C177.728 151.006 178.162 150.894 178.554 150.67C178.955 150.437 179.272 150.105 179.506 149.676C179.739 149.237 179.856 148.729 179.856 148.15ZM183.955 143.082C183.712 143.082 183.507 142.998 183.339 142.83C183.171 142.662 183.087 142.457 183.087 142.214C183.087 141.971 183.171 141.766 183.339 141.598C183.507 141.43 183.712 141.346 183.955 141.346C184.188 141.346 184.384 141.43 184.543 141.598C184.711 141.766 184.795 141.971 184.795 142.214C184.795 142.457 184.711 142.662 184.543 142.83C184.384 142.998 184.188 143.082 183.955 143.082ZM184.571 144.328V152H183.297V144.328H184.571ZM189.458 152.126C188.87 152.126 188.343 152.028 187.876 151.832C187.409 151.627 187.041 151.347 186.77 150.992C186.499 150.628 186.35 150.213 186.322 149.746H187.638C187.675 150.129 187.853 150.441 188.17 150.684C188.497 150.927 188.921 151.048 189.444 151.048C189.929 151.048 190.312 150.941 190.592 150.726C190.872 150.511 191.012 150.241 191.012 149.914C191.012 149.578 190.863 149.331 190.564 149.172C190.265 149.004 189.803 148.841 189.178 148.682C188.609 148.533 188.142 148.383 187.778 148.234C187.423 148.075 187.115 147.847 186.854 147.548C186.602 147.24 186.476 146.839 186.476 146.344C186.476 145.952 186.593 145.593 186.826 145.266C187.059 144.939 187.391 144.683 187.82 144.496C188.249 144.3 188.739 144.202 189.29 144.202C190.139 144.202 190.825 144.417 191.348 144.846C191.871 145.275 192.151 145.863 192.188 146.61H190.914C190.886 146.209 190.723 145.887 190.424 145.644C190.135 145.401 189.743 145.28 189.248 145.28C188.791 145.28 188.427 145.378 188.156 145.574C187.885 145.77 187.75 146.027 187.75 146.344C187.75 146.596 187.829 146.806 187.988 146.974C188.156 147.133 188.361 147.263 188.604 147.366C188.856 147.459 189.201 147.567 189.64 147.688C190.191 147.837 190.639 147.987 190.984 148.136C191.329 148.276 191.623 148.491 191.866 148.78C192.118 149.069 192.249 149.447 192.258 149.914C192.258 150.334 192.141 150.712 191.908 151.048C191.675 151.384 191.343 151.65 190.914 151.846C190.494 152.033 190.009 152.126 189.458 152.126ZM195.611 145.378V149.9C195.611 150.273 195.69 150.539 195.849 150.698C196.007 150.847 196.283 150.922 196.675 150.922H197.613V152H196.465C195.755 152 195.223 151.837 194.869 151.51C194.514 151.183 194.337 150.647 194.337 149.9V145.378H193.343V144.328H194.337V142.396H195.611V144.328H197.613V145.378H195.611ZM206.156 147.87C206.156 148.113 206.142 148.369 206.114 148.64H199.982C200.029 149.396 200.285 149.989 200.752 150.418C201.228 150.838 201.802 151.048 202.474 151.048C203.025 151.048 203.482 150.922 203.846 150.67C204.219 150.409 204.481 150.063 204.63 149.634H206.002C205.797 150.371 205.386 150.973 204.77 151.44C204.154 151.897 203.389 152.126 202.474 152.126C201.746 152.126 201.093 151.963 200.514 151.636C199.945 151.309 199.497 150.847 199.17 150.25C198.843 149.643 198.68 148.943 198.68 148.15C198.68 147.357 198.839 146.661 199.156 146.064C199.473 145.467 199.917 145.009 200.486 144.692C201.065 144.365 201.727 144.202 202.474 144.202C203.202 144.202 203.846 144.361 204.406 144.678C204.966 144.995 205.395 145.434 205.694 145.994C206.002 146.545 206.156 147.17 206.156 147.87ZM204.84 147.604C204.84 147.119 204.733 146.703 204.518 146.358C204.303 146.003 204.009 145.737 203.636 145.56C203.272 145.373 202.866 145.28 202.418 145.28C201.774 145.28 201.223 145.485 200.766 145.896C200.318 146.307 200.061 146.876 199.996 147.604H204.84ZM209.112 145.574C209.336 145.135 209.653 144.795 210.064 144.552C210.484 144.309 210.992 144.188 211.59 144.188V145.504H211.254C209.826 145.504 209.112 146.279 209.112 147.828V152H207.838V144.328H209.112V145.574ZM220.06 147.87C220.06 148.113 220.046 148.369 220.018 148.64H213.886C213.933 149.396 214.19 149.989 214.656 150.418C215.132 150.838 215.706 151.048 216.378 151.048C216.929 151.048 217.386 150.922 217.75 150.67C218.124 150.409 218.385 150.063 218.534 149.634H219.906C219.701 150.371 219.29 150.973 218.674 151.44C218.058 151.897 217.293 152.126 216.378 152.126C215.65 152.126 214.997 151.963 214.418 151.636C213.849 151.309 213.401 150.847 213.074 150.25C212.748 149.643 212.584 148.943 212.584 148.15C212.584 147.357 212.743 146.661 213.06 146.064C213.378 145.467 213.821 145.009 214.39 144.692C214.969 144.365 215.632 144.202 216.378 144.202C217.106 144.202 217.75 144.361 218.31 144.678C218.87 144.995 219.3 145.434 219.598 145.994C219.906 146.545 220.06 147.17 220.06 147.87ZM218.744 147.604C218.744 147.119 218.637 146.703 218.422 146.358C218.208 146.003 217.914 145.737 217.54 145.56C217.176 145.373 216.77 145.28 216.322 145.28C215.678 145.28 215.128 145.485 214.67 145.896C214.222 146.307 213.966 146.876 213.9 147.604H218.744ZM221.266 148.136C221.266 147.352 221.425 146.666 221.742 146.078C222.059 145.481 222.493 145.019 223.044 144.692C223.604 144.365 224.229 144.202 224.92 144.202C225.517 144.202 226.073 144.342 226.586 144.622C227.099 144.893 227.491 145.252 227.762 145.7V141.64H229.05V152H227.762V150.558C227.51 151.015 227.137 151.393 226.642 151.692C226.147 151.981 225.569 152.126 224.906 152.126C224.225 152.126 223.604 151.958 223.044 151.622C222.493 151.286 222.059 150.815 221.742 150.208C221.425 149.601 221.266 148.911 221.266 148.136ZM227.762 148.15C227.762 147.571 227.645 147.067 227.412 146.638C227.179 146.209 226.861 145.882 226.46 145.658C226.068 145.425 225.634 145.308 225.158 145.308C224.682 145.308 224.248 145.42 223.856 145.644C223.464 145.868 223.151 146.195 222.918 146.624C222.685 147.053 222.568 147.557 222.568 148.136C222.568 148.724 222.685 149.237 222.918 149.676C223.151 150.105 223.464 150.437 223.856 150.67C224.248 150.894 224.682 151.006 225.158 151.006C225.634 151.006 226.068 150.894 226.46 150.67C226.861 150.437 227.179 150.105 227.412 149.676C227.645 149.237 227.762 148.729 227.762 148.15ZM231.609 152.084C231.366 152.084 231.161 152 230.993 151.832C230.825 151.664 230.741 151.459 230.741 151.216C230.741 150.973 230.825 150.768 230.993 150.6C231.161 150.432 231.366 150.348 231.609 150.348C231.842 150.348 232.038 150.432 232.197 150.6C232.365 150.768 232.449 150.973 232.449 151.216C232.449 151.459 232.365 151.664 232.197 151.832C232.038 152 231.842 152.084 231.609 152.084Z" fill="#D92D20"/>
<rect x="0.5" y="178.5" width="383" height="47" rx="3.5" fill="white"/>
<path d="M22.192 197.28L22.768 198.32L20.544 199.248L22.784 200.16L22.176 201.232L20.24 199.824L20.496 202.24H19.296L19.536 199.824L17.6 201.248L16.976 200.16L19.2 199.232L16.976 198.336L17.568 197.264L19.552 198.688L19.296 196.256H20.512L20.24 198.688L22.192 197.28ZM29.9733 197.28L30.5493 198.32L28.3253 199.248L30.5653 200.16L29.9573 201.232L28.0213 199.824L28.2773 202.24H27.0773L27.3173 199.824L25.3813 201.248L24.7573 200.16L26.9813 199.232L24.7573 198.336L25.3493 197.264L27.3333 198.688L27.0773 196.256H28.2933L28.0213 198.688L29.9733 197.28ZM37.7545 197.28L38.3305 198.32L36.1065 199.248L38.3465 200.16L37.7385 201.232L35.8025 199.824L36.0585 202.24H34.8585L35.0985 199.824L33.1625 201.248L32.5385 200.16L34.7625 199.232L32.5385 198.336L33.1305 197.264L35.1145 198.688L34.8585 196.256H36.0745L35.8025 198.688L37.7545 197.28ZM45.5358 197.28L46.1118 198.32L43.8878 199.248L46.1278 200.16L45.5198 201.232L43.5838 199.824L43.8398 202.24H42.6398L42.8798 199.824L40.9438 201.248L40.3198 200.16L42.5438 199.232L40.3198 198.336L40.9118 197.264L42.8958 198.688L42.6398 196.256H43.8558L43.5838 198.688L45.5358 197.28ZM53.317 197.28L53.893 198.32L51.669 199.248L53.909 200.16L53.301 201.232L51.365 199.824L51.621 202.24H50.421L50.661 199.824L48.725 201.248L48.101 200.16L50.325 199.232L48.101 198.336L48.693 197.264L50.677 198.688L50.421 196.256H51.637L51.365 198.688L53.317 197.28ZM61.0983 197.28L61.6743 198.32L59.4503 199.248L61.6903 200.16L61.0823 201.232L59.1463 199.824L59.4023 202.24H58.2023L58.4423 199.824L56.5063 201.248L55.8823 200.16L58.1063 199.232L55.8823 198.336L56.4743 197.264L58.4583 198.688L58.2023 196.256H59.4183L59.1463 198.688L61.0983 197.28ZM68.8795 197.28L69.4555 198.32L67.2315 199.248L69.4715 200.16L68.8635 201.232L66.9275 199.824L67.1835 202.24H65.9835L66.2235 199.824L64.2875 201.248L63.6635 200.16L65.8875 199.232L63.6635 198.336L64.2555 197.264L66.2395 198.688L65.9835 196.256H67.1995L66.9275 198.688L68.8795 197.28ZM76.6608 197.28L77.2368 198.32L75.0128 199.248L77.2528 200.16L76.6448 201.232L74.7088 199.824L74.9648 202.24H73.7648L74.0048 199.824L72.0688 201.248L71.4448 200.16L73.6688 199.232L71.4448 198.336L72.0368 197.264L74.0208 198.688L73.7648 196.256H74.9808L74.7088 198.688L76.6608 197.28ZM84.442 197.28L85.018 198.32L82.794 199.248L85.034 200.16L84.426 201.232L82.49 199.824L82.746 202.24H81.546L81.786 199.824L79.85 201.248L79.226 200.16L81.45 199.232L79.226 198.336L79.818 197.264L81.802 198.688L81.546 196.256H82.762L82.49 198.688L84.442 197.28ZM92.2233 197.28L92.7993 198.32L90.5753 199.248L92.8153 200.16L92.2073 201.232L90.2713 199.824L90.5273 202.24H89.3273L89.5673 199.824L87.6313 201.248L87.0073 200.16L89.2313 199.232L87.0073 198.336L87.5993 197.264L89.5833 198.688L89.3273 196.256H90.5433L90.2713 198.688L92.2233 197.28Z" fill="#121317"/>
<path d="M356 205.75C357.183 205.75 358.187 205.337 359.012 204.512C359.837 203.687 360.25 202.683 360.25 201.5C360.25 200.317 359.837 199.313 359.012 198.488C358.187 197.663 357.183 197.25 356 197.25C354.816 197.25 353.812 197.663 352.987 198.488C352.162 199.313 351.75 200.317 351.75 201.5C351.75 202.683 352.162 203.687 352.987 204.512C353.812 205.337 354.816 205.75 356 205.75ZM356 204.3C355.216 204.3 354.554 204.029 354.012 203.488C353.471 202.946 353.2 202.283 353.2 201.5C353.2 200.717 353.471 200.054 354.012 199.512C354.554 198.971 355.216 198.7 356 198.7C356.783 198.7 357.446 198.971 357.987 199.512C358.529 200.054 358.8 200.717 358.8 201.5C358.8 202.283 358.529 202.946 357.987 203.488C357.446 204.029 356.783 204.3 356 204.3ZM356 209C353.7 209 351.604 208.375 349.712 207.125C347.821 205.875 346.358 204.225 345.325 202.175C345.275 202.092 345.237 201.992 345.212 201.875C345.187 201.758 345.175 201.633 345.175 201.5C345.175 201.367 345.187 201.242 345.212 201.125C345.237 201.008 345.275 200.908 345.325 200.825C346.358 198.775 347.821 197.125 349.712 195.875C351.604 194.625 353.7 194 356 194C358.3 194 360.396 194.625 362.287 195.875C364.179 197.125 365.641 198.775 366.675 200.825C366.725 200.908 366.762 201.008 366.787 201.125C366.812 201.242 366.825 201.367 366.825 201.5C366.825 201.633 366.812 201.758 366.787 201.875C366.762 201.992 366.725 202.092 366.675 202.175C365.641 204.225 364.179 205.875 362.287 207.125C360.396 208.375 358.3 209 356 209Z" fill="#606880"/>
<rect x="0.5" y="178.5" width="383" height="47" rx="3.5" stroke="#DCDEE5"/>
</svg>
