<svg width="44" height="44" viewBox="0 0 44 44" fill="none" xmlns="http://www.w3.org/2000/svg">
<path opacity="0.5" d="M43.9996 22.182C43.9996 26.4971 42.7255 30.7153 40.3384 34.3032C37.9513 37.8911 34.5584 40.6876 30.5888 42.3389C26.6191 43.9902 22.2511 44.4223 18.037 43.5804C13.8228 42.7386 9.95194 40.6606 6.91373 37.6094C3.87552 34.5581 1.80647 30.6706 0.968224 26.4384C0.129983 22.2062 0.560181 17.8194 2.20445 13.8328C3.84872 9.8461 6.6332 6.43863 10.2058 4.04128C13.7783 1.64392 17.9785 0.364349 22.2752 0.364349C28.0369 0.364349 33.5626 2.66299 37.6367 6.75459C41.7108 10.8462 43.9996 16.3956 43.9996 22.182Z" fill="white"/>
</svg>
